<mxfile host="app.diagrams.net" agent="Mozilla/5.0 (Windows NT 10.0; Win64; x64) AppleWebKit/537.36 (KHTML, like Gecko) Chrome/130.0.0.0 Safari/537.36" version="25.0.3">
  <diagram name="Sida-1" id="hxEk1iuRz4KuA7EpR39H">
    <mxGraphModel dx="2074" dy="1933" grid="1" gridSize="10" guides="1" tooltips="1" connect="1" arrows="1" fold="1" page="1" pageScale="1" pageWidth="1169" pageHeight="827" math="0" shadow="0">
      <root>
        <mxCell id="0" />
        <mxCell id="1" parent="0" />
        <mxCell id="if22WZUiUY4eo4lCOcyr-70" value="" style="rounded=1;whiteSpace=wrap;html=1;fillColor=#dae8fc;strokeColor=#6c8ebf;strokeWidth=3;" vertex="1" parent="1">
          <mxGeometry x="30" y="-8" width="1070" height="590" as="geometry" />
        </mxCell>
        <mxCell id="if22WZUiUY4eo4lCOcyr-71" value="" style="group;strokeWidth=3;" vertex="1" connectable="0" parent="1">
          <mxGeometry x="65" y="53" width="1010" height="520" as="geometry" />
        </mxCell>
        <mxCell id="if22WZUiUY4eo4lCOcyr-41" value="" style="rounded=0;whiteSpace=wrap;html=1;" vertex="1" parent="if22WZUiUY4eo4lCOcyr-71">
          <mxGeometry x="175" width="665" height="440" as="geometry" />
        </mxCell>
        <mxCell id="if22WZUiUY4eo4lCOcyr-34" value="" style="rounded=1;whiteSpace=wrap;html=1;" vertex="1" parent="if22WZUiUY4eo4lCOcyr-71">
          <mxGeometry x="190" y="90" width="198.37" height="290" as="geometry" />
        </mxCell>
        <mxCell id="if22WZUiUY4eo4lCOcyr-1" value="" style="rounded=1;whiteSpace=wrap;html=1;" vertex="1" parent="if22WZUiUY4eo4lCOcyr-71">
          <mxGeometry x="460" y="200" width="100" height="110" as="geometry" />
        </mxCell>
        <mxCell id="if22WZUiUY4eo4lCOcyr-3" value="&lt;h3&gt;Sekvensering&lt;/h3&gt;" style="text;html=1;align=center;verticalAlign=middle;whiteSpace=wrap;rounded=0;strokeColor=default;fillColor=#99CCFF;" vertex="1" parent="if22WZUiUY4eo4lCOcyr-71">
          <mxGeometry x="460" y="240" width="100" height="30" as="geometry" />
        </mxCell>
        <mxCell id="if22WZUiUY4eo4lCOcyr-28" value="" style="shape=cylinder3;whiteSpace=wrap;html=1;boundedLbl=1;backgroundOutline=1;size=15;fillColor=#9E9E9E;" vertex="1" parent="if22WZUiUY4eo4lCOcyr-71">
          <mxGeometry x="260" y="125" width="50" height="70" as="geometry" />
        </mxCell>
        <mxCell id="if22WZUiUY4eo4lCOcyr-33" value="" style="shape=flexArrow;endArrow=classic;html=1;rounded=0;" edge="1" parent="if22WZUiUY4eo4lCOcyr-71">
          <mxGeometry width="50" height="50" relative="1" as="geometry">
            <mxPoint x="441.63" y="252.5" as="sourcePoint" />
            <mxPoint x="400" y="230" as="targetPoint" />
          </mxGeometry>
        </mxCell>
        <mxCell id="if22WZUiUY4eo4lCOcyr-36" value="" style="shape=cylinder3;whiteSpace=wrap;html=1;boundedLbl=1;backgroundOutline=1;size=15;fillColor=#9E9E9E;" vertex="1" parent="if22WZUiUY4eo4lCOcyr-71">
          <mxGeometry x="230" y="210" width="50" height="70" as="geometry" />
        </mxCell>
        <mxCell id="if22WZUiUY4eo4lCOcyr-37" value="" style="shape=cylinder3;whiteSpace=wrap;html=1;boundedLbl=1;backgroundOutline=1;size=15;fillColor=#9E9E9E;" vertex="1" parent="if22WZUiUY4eo4lCOcyr-71">
          <mxGeometry x="300" y="280" width="50" height="70" as="geometry" />
        </mxCell>
        <mxCell id="if22WZUiUY4eo4lCOcyr-39" value="&lt;h3&gt;Lagring&lt;/h3&gt;" style="text;html=1;align=center;verticalAlign=middle;whiteSpace=wrap;rounded=0;" vertex="1" parent="if22WZUiUY4eo4lCOcyr-71">
          <mxGeometry x="295" y="210" width="60" height="30" as="geometry" />
        </mxCell>
        <mxCell id="if22WZUiUY4eo4lCOcyr-45" value="&lt;h2&gt;Snabbt nÃ¤tverk (dfil1,...)&lt;/h2&gt;" style="text;html=1;align=center;verticalAlign=middle;whiteSpace=wrap;rounded=0;" vertex="1" parent="if22WZUiUY4eo4lCOcyr-71">
          <mxGeometry x="382.5" y="10" width="245" height="30" as="geometry" />
        </mxCell>
        <mxCell id="if22WZUiUY4eo4lCOcyr-120" style="edgeStyle=orthogonalEdgeStyle;rounded=0;orthogonalLoop=1;jettySize=auto;html=1;exitX=0.5;exitY=1;exitDx=0;exitDy=0;" edge="1" parent="if22WZUiUY4eo4lCOcyr-71">
          <mxGeometry relative="1" as="geometry">
            <mxPoint x="500" y="440" as="sourcePoint" />
            <mxPoint x="500" y="440" as="targetPoint" />
          </mxGeometry>
        </mxCell>
        <mxCell id="if22WZUiUY4eo4lCOcyr-290" value="" style="shape=image;verticalLabelPosition=bottom;labelBackgroundColor=default;verticalAlign=top;aspect=fixed;imageAspect=0;image=data:image/png,iVBORw0KGgoAAAANSUhEUgAAALYAAADECAYAAAFFHetYAAAACXBIWXMAAA7DAAAOwwHHb6hkAAAAGXRFWHRTb2Z0d2FyZQB3d3cuaW5rc2NhcGUub3Jnm+48GgAAIABJREFUeJztnXd0VFX3sJ876YVJQugl9A6hTUIIAhJKRBAwgCIgQpCuoBRReEH5oSig+QRFkPbSEVAEX+kIilKNBELvAQIkAZKQRuqc748wl0wyk8wkM5PiPGvdtWZuOXffPXvO3eecffZBCEHuDbgBCCO3/5ennFw7ikxgYKDQlCc9k5RndzclkiK/giVJ4uHDhzg7OxMWFsaRI0eQJMmwkiUpf3UA4qWXXhJCCHH69Gl5X2xsrEEqkoBrQoj6JlFEbukBkUPvuR/N4IJ0lWGb3wWhoaEGF64LRcGnFJ58JdegUqkAqFu3Lt26daNjx440adLENIUXVj0GqeWnn34iISGh6IXrspD+/fujVCpl9RSqcAcHB9mk5s6di0qlQqVS0a5dO0C/ek6cOKFzv5adZ2Vl8eDBA2rUqAHAP//8k+cClUpFaGgo8+bNY8aMGfL+tm3b5i+5ra0ttra2ODk5MX/+fFnyuXPnahWsISYmRqfEcnk5v3z00UcMHz6cmTNnMn36dLp165bvxceOHaNfv36GFT5v3jwUCgV79uzReXJAQICW9A8ePDBc8tq1a6NWqwHo2rUrhw4dko8tXLiQBQsWaF08bty4fAuXAPWz2hHItpi0tDQg/x80t/51/aAS8KIQ4rCuOw8fPpxLly7Rv39/unbtmq+UOgt/ZoamfsUxbty47MIlSdJbpxeB7HeoEEIy5sVQYKmSVB9y/Ime/ahStWrVilIoZKv6hqbQ3A7RWIx3iKJylyNyOkXZ9yk6wCStwr/88kuTFJzjBlvFMwPZbMyFmZmZBt8jXxuUJAkXFxeSkpLkfY6OjqSmphry435tFgPXCKb3HTp16lQkSTJ404Xet//ff/9t8Ftf37u1ZDhF9vb2dOrUiY4dO9KxY0eUSqVpCjerU6TrpVGowl1cXPKc1LZtWz7//HN+/fVXowrXa+d2dnZkZmYC8OabbzJp0iQAwsPDCQ4O1lKVSqXK459LkqRduCRJ8kmdO3cmJCRE64JXXnmF//3vf1r7NGaoq3AttYjstxJPnjzh+PHjslP04MEDli1bplVYQQ4R6PlB3dzcaN++PaGhoYSGhlK1alVq1aolewWQ7RAZVXh+r7qePXsSGxsrF9q9e/cCC9f5g6rVamxsbOTvjo6O/PXXX0Bef9FgnQcGBmY/jkJBp06dZLVoCj5y5EieP1RAQIBxkgP4+PigVCpxd3fXcpV1odcUyacdWkQkhcjhJ5oKTaWm0bnJbjBmzBgSEhKyyxPaPotITU015n0tM3jwYAHUE7r8ltwb8AMm8mUKQ+PGjQWQqVe+XMK2DgkJKTZh8wOIFqbwFDXn577O3t5eCCFExYoV5eN//vmn2Lt3b9EkF0KsW7dOiJyCF8Ykcl4zb948MW/ePCFEdkdYkyZN8pxvZ2dXOGlzcfz4cSGEQALGCiGWmurfaQnMXSGaDUmSDHPkcqPL4TAFul43+jCr72xOSq3ghTKVoqBWq7lx4wa3b98mMjKS4cOHF6ociwuuUCho0KABDRo0KFI5Bgv++PFjfHx8uHXrFqC/wTl//ny6du3KvXv3uHHjBpcvX+bmzZvypqFu3bps3bq10ILrrQ4HDx5MQkKCzoaVobVKWloaHTp0MKr1bUitkm91uHnzZoQQXL9+nQYNGiBJEmFhYbRs2TLfQmNjYwkKCiIpKYl58+Yxf/581Go1CoWC+/fv06dPH53XGdt21iu4rW32oYULFwJQq1YtatasyWuvvcaRI0d0mkqVKlWoX78+SUlJKBQKevToATxv3FSrVo2goCCmT5+u1RAydgwhX8EzMjJkLX///ffy/q1btxr1AlKpVJw8eVJr35kzZ3R29hqDXsGnTJmiZW8xMTF4eXnJDdv8tDR+/HiCg4MB8nR/R0VFFVnofAX/6quvkCSJq1ev0rBhQzw9PUlKSsLW1rZAjW/atAmVSoWbmxsvvPACQ4cOlY9VqVJF/uzr60vz5s1NK/ihQ4c4f/48DRo0MNh/0DB48GAGDx4sf1epVLz33nt5zjt16pR83FgUQJiuAwEBATRr1gzI1owkSdjZ2XH8+HG9haWnpzNp0iS5U0ZDzhpjxowZdOnSRf6eu1fCYIQQXLp0yShnfsKECcZ21Bu8GQLQRzOw0lwIcc74x7Y8kiSphRA2mkGb84CkUJRcZ3HNmjVIkqQUQtgAWuEgMpIkidjYWDw8PCwuoA5ZNINV2gg9/Rbieeu/ErAHSMRMdp1jCwUCCpQpH2HlVruluXLliuYhvHXJlsdEJElKuXDhglPTpk1N8xsXEV0moiW0mYZqi4xCoUCtVsuCy0KXVIE15NS44tmOaUUVWJIkXnrpJa3vkB2ZMnbs2CKVDfLwiIBnQiuVygX5X6IfTdWYmJgIZAub09FydnaWx1yKSnx8vPz5taL806dPny6mT58uhMiOCVSr1SIgIEDrFR0WFlaUW2jBs/iLolwshBDC09NTCCEHMsrHk5OThbOzs8E+hiFUq1ZNSDY2NkIz8FcaSE1NRTFlypTilsMoHB0dUdSrV6+45TCaQrl3xoQ0GLP98MMPBt2/UN1pTZs2Zd26dYW5NF82b97MoEGDCjyv5DrS+WAV2lKUSqFN0q+duz+jQoUKVK9enXr16lGnTh35c/Xq1U1xO9MIbUxfxuPHj7lx4waRkZEEBQUV6n4WH0Hw9PTE09MTX1/fQpdRKm3aZEIfPHiQ27dvm6q4fDHYPD7//HOtmBtdnYnt2rVjyZIlpKWlcenSJa3xmZs3b/Lo0SP53KLMyshX6B49enDgwAFWrFjBRx99xEcffQRAs2bN9L7Gk5KSePHFF4ssWH7oFTpnPJwxuLq6ysL6+vqye/duKlSoUHgJdaDTpsuXL69T4KtXr9KrVy8uXrwod/FqtpEjR3L69Gmt80+dOqXV2NXX2Hj55ZeNElqnpvv376/1AHFxcUyYMIFvv/2WXbt25Wseq1atYunS7MiO3Obh5+en85qCAvYNEnrFihVyF4CxJjJy5EhGjhyJWq1GpVLRsWNH+diECRMYMWKEUeXpQq9Nu7q6kpiYKAv/+eef07p1a0aMGMGDBw901h4dOnTg+PHjqNVqQkJC5EkxucnKytIaujMWvfW0ZoSqfPny2ScqFLi4uODj45Pn3Lp16zJ79mwWLVrEnj17UCgUTJ48mZSUFJ2xjY8fPyY9Pb3QQuvV9JMnT3TWIC+88EK+Nu3p6SkPDC1atIj169fnse3IyEgqVapUaKH1avrMmTNypK6tra3ef74uevTogUqlYtSoUfz999/s379fPqZWq7lz5w6XLl0qtNAFvhE1mn733Xf59ttv5f36htcqV67Mnj17tGw2IyNDq7z8pk4Zgl6ho6Oj5T/hjBkz+Oabb/jmm2+A/N+IACkpKXTq1Ily5cqRmJioZR42Njb4+Pjw999/F1povebRqlUrdu/ejaOjI/PmzWPVqlUGFZiWliYHI2/fvl3nOX///TeXLl3Cx8eHXr16GS20Xk0/fPiQnj178vTpU3nfxo0bGTlyJGlpaTrNw9/fn8WLF/Pnn3/K+0JDQ9m8eTNvvPGG1rlNmjQptLb1Cq3rjzdkyBCGDBlSoHnkZMGCBXzwwQeFEk4fCn1vPE3NcePGjUIXrlKpqFmzpvxd19vw008/NbpcxdmzZ/UeFELg6ekpd1sV9Ar+/fffZQdq9uzZhIaG5jGLvn37yjNsv/76ayZMmGC00IUKAa1evTp+fn5ERERQvnx5qlevzqBBg6hYsaLRAuRk8+bNfPnll/mec+5c9si40R3bmGnwc82aNQbd2xZwAp5XEQZQmMaBCYlTCCFSTTkT05xMmzYNIYTcQrG7du2a0WZiaYCzIucwsyRJYUKIVsWpyfzIM/gJIIRoLUnSTUOmVlqa3OPjuSeN1XNycmrl4OBgecl08MEHHyBJUrjIHfMh9IdOLAXEypUrLWq34eHhmiowTp9sOqNrDEGSpEHAep75L7a2tgQGBtK8eXMqV66sc/ZjaSImJobIyEgOHjyY25XZBQwUQhj1mgAKjgjKYTGTAFGuXDlx//59i1pNSeTjjz/WWHIyYC8M0GG+li1JUhXgQZs2bQo94fffwO3bt6lduzbAeSFEC33n6QvSqwbc++WXX3jllVfMJmRZxN7enoyMjJtCiDzRB7rS76S0bdv2nhDCLIrOOYMjPT2dO3fu5DknIiKCzMxMHjx4oHU+ZHfg597322+/sX79eu7evWtyeY0lPT2d1NTUupIkCUmSWmsdFNr1srh8+bJZ6zpyNZxatGihmcYohBBi3759omPHjkKI7GijHTt2iPHjx8vHy5UrJ5fx8OFDOTKpJGJvby+ATULXxNjo6GizC5Bb2bn35fwcGBgoTp8+LUaNGiUePHggH8t5jlqtFu+8846wsbERgLhz544ZpTceJycnAXwnckzmTf/0008tcnNdytbsz31Mo2whhBg4cKBITk7WKiN3Bppr167Js6BLEs+ezV0CKgIxogQHzZZ2Vq5cyahRo4QE7Hr55Zdf3rVrV3HLVKbRJBvpXFACOiumwRZwsVTTOjEx0aixv+LE0dERJycnk5ZpseCszp078+jRI7PEsZoDlUrFlClTChwIMIZSGVRWWrEq24JYlW1BrMq2IFZlWxCLh4rnx/bt20lMTCQ+Pp7Y2Fji4uKIi4sjISGBxMTEQmUVzw9zhf3qo0Qpu7CTC0oL1mrEgliVbUEsWo1kZWVx7949EhISePLkCQqFgnLlyuHm5oa7uzvOzs6FSjKTG6VSiZubGxUqVMDT0xOlUkmFChXkrVOnTiZ4GuMxibLXrVvH6NGjtZIFAwwYMICOHTvi7+8PZEfYVq9eXe/steTkZBYvXkx4eDhHjhzh6tWrWsebNm3KF198QVGy2xcnhVL26tWrGTlyJACzZs3i//7v/xg2bFiRhXFxccHf3x9/f3+9eRiePn3KgAEDiIiIQJIkjh49ir29fZHvbQmMUva5c+fw9vZm2bJlxRab6OTkxI8//ih/DwgIICEhIY8bd/nyZa2EXobg7e3N6tWrTSKnLoxStre3N23btmXMmDE6j2/atImpU6fqXCNFoVDg5OTEvHnzKFeuHEqlknLlypGamkp8fLzsW58/f15rbp4sqK0to0ePltO6aTh06BAqlYpdu3ZpxdAPHTqUI0eO4OzsbPDzde3aldOnT9OmTRuDrzEGo5QtnkWWKxQKEhMTKV++POnp6UiSxKZNm/JkXMuJpou1oMTkBXH9+nXGjRtHXFycvK9169Z5JiuEhoby3//+lwcPHhh0z0InUjMCo12/yMhIhBDUrl1bnh7Vu3dviwTznD59mpEjR8qKXrFiBR9//DFhYWHybD9d5J7eaGz1YiqMfkHWqFGD1atX55l2kJiYyIsvvsgff/yh/2a2trz++uty+n1bW1uePHlCbGwsT5484eHDh/ne293dnZkzZ8r5OCHbql955RVUKhVjxoxBV844JycnuTo5cuSIMY9rUoxWdkhICMHBwdStW5eBAwfy8OFDJEli8+bN/P7773qvM+VIzbZt25g/fz4AXl5e3Llzh6pVq+pUNGQrW+NuvvHGG7Rp04Zp06YVWQ5jMVrZ77//PpMnT6ZHjx5yNTJ16lRef/11kwunj5xrzyiVSiRJynfhMkdHR2rUqIEkSXnWJLMkRitbs/Jg7gbMr7/+yrBhw7ReXAAtW7bkhRde4M6dOyQnJzNv3jwSEhLknjzIXlHFzc0NJycnnJycSE1NJSIigrAw7eSjCoWCd955h2HDhskz/TSoVCo+/PBDvvjiizwyOzo6ytO9Fi9eTIsWLbSyjFoKo5V96dIlJEmifPnyxMbGAtnL4U2dOlVL0S4uLvKMb29vb86dO6fljaSlpREfH4+Tk5PeVZJOnTrFjh07OHDgAEII1Go1ixcv5uzZsyxcuFCuNjRLI+pS9N9//02nTp0QQvDjjz9Sq1YtYx/ZZBSqBSmEwN/fX540a2dnx549e4yaz+/g4EDlypXzPcfX1xdfX988M9z3799Pu3bt5IbV6NGjGT16tM4yfHx8+Pnnn+Xvffr0ISEhgf3791u85Wm0svft28dLL73E9evXyZ0Abd68ecyePZusrCyt/RUqVEAIgY2NDSdOnMDNzU1u1EC2J/PkyRPi4+O5ePEi4eHhnD17luTkZK1yHBwceO+99xg4cKCWR7J48WKD/eRffvlF63tycrLJ40P0YbSyx40bh42NTR5FQ/a0cH0NCI03oivLhVKplL0FTaeVMUycOJF169axZcsWo1/Ulpz7Y3Sj5ubNm9SsWdOozHTmZOrUqahUKkaPHp1H0V5eXgbNo9asqGpuFEB0dHS0URfdunULIQQdOnTA1tZWnl/97rvvmjW8LDY2lnfeeUduCfbu3ZsFCxYQGhqqs87u2rUrdnZ2vP3223rLfPjwIb6+vhYZj5SAkHr16r1//fp1kxSYlJTEF198wfLlywtsERpKvXr1CAoKKpIvf/bsWcaPH6/lsvbt25dZs2bpPN/U4WeaNRAtktT43xzrN3jwYDZv3nxWo+xfGjRo8ErukRFTc/fuXa2ELiUZV1fXIqX0yYk8p1o8n1OT8dFHH1l8CkRZh+wpHvWFEM9dPyGEnSRJT44dO6bMr0PJiuE8a/RVF0Lch7xZAtz++OOPcaUlE0ZJZcyYMXLVoVE0kG92gwc2NjbF898rpaxbt05TbTQUxqzCIZ4r/QdAszinlVyo1Wp5IixQTuSny/wO5jn5meKdnZ3FiRMnLP1cJYaxY8dqlJsFVBOG6s/QE3VeDB7AYkCN+RfMKe7tHNC3KPoqdHKXnEiSFAC8AnQEagD5952WfJKAGOAK8AuwXQhR8GLzBVAoZUuS5AT8CMhZdOvXr0+3bt2oXr26yRoDxUVycjLR0dGcO3eOffv25ewyzgSGCiG2FKpgI6uNlmTXU6JJkybi6tWrJqwJSz6fffZZzmplszC22jXoJLADEgAxceJEiz5gSeThw4fCw8NDo/RPhKmUDQwDRJcuXSz9TCWea9euaRSeKgxQdr4jNZIkhQGtdA2BWcl+TwkhaN++vcOzVctqCCHu6b1A368ARD/rerViAF9++aXGylsJY1w/SZJu2tnZ1SlKqvN/I7/88gt9+/aF7IZOnqghXQm5NgFWRReCPn36aHKg39d5gtCuOloAIjU11Sx/tcTERBETEyN/v3Hjhs7zNPtv3Lghnj59mudYzjKSk5PF6tWrxd69e80gceFo06aNAJ6KXNVIbssO37hxI+ZKxPrLL78wffp0+fuXX34pB0hqmDlzppxwvl69elrrlqenp9OkSRM+/PBDIDvhtpeXF9WqVSMqKqpELBYMaBJOOkqS9L7WAfHcqrc6ODiY9RffuHGjGDFihNY+ciXhyvkdEAqFQv7ep08fsWnTJhEcHKzz2pLExYsXNfLptOyBUVFRFvnlc2Jvb48mF3N8fDyurq5ax9etW8e2bduA7H9GzqCawMBAatWqRX7p7IuLJk2a4ObmhiRJ6zX7NCvwLnV2dsbd3d3iQv3000/yKh49e/Zkz549WseHDBnC4MGD+eeff/i///s/rWN79+5lxYoVDBkyBEmSTDKH0pRcuXIF4Pk0B5FdhYiTJ0+a/a+lqxoR4nl1gJ4qpWHDhnJmyp07d8rViK5y0tLSTClykSHb9+4vhEAhSVJ5oEgL6hWVDh06MGvWLHr27Knz+G+//YauDG1JSUl59pW0hF9z5swB2KT5/k21atUs8itv3LgxT6e8EEIkJCQIdLic6HgB5rRspVIpAFGjRg0BiE6dOpn/IQrBs+dAAtSrVq2Scs8vtGI6nkUrVJAA8fTpUxwdHYtZpLKLra0tWVlZoxWAVdFmpnv37gB9rPlGLEDz5s0BGlqVbQGqVq0KUM2qbAvwrFXsatFMOrnnSJZkzNGpZTFll8ZgTWGCmJqcWNSyLZ1Hr7AIIXQu7FtUrHW2BbEq24JYlW1BrMq2IFZlWxCrsi2IVdkWxKpsC2JVtgWxKtuClJjM8H/88QdTpkzRe1yTeUeTnlnzuWLFilr7NedVrFjRgtIbRolRdp06dZg8eTKxsbFydrSEhAR53QPN/nv39Ic/G8OOHTuoUaOGScoylBKjbC8vL715XItCzsUpND9cXFwcFSpUMPm9CqLEKNtcKJVKrRxUxYn1BWlBrMq2IFZlWxCrsi1IiXpBJiYm8vvvv+Pp6YmHhwfu7u5UqFABOzu74hbNJFhU2TExMfL6Bunp6bi7u+Pu7i57DHfu3NFEfRYahUKhc30apVKJp6cnvXv3NtHTGI/Jlb1//35WrFihteKGhpdfflnHFbpRKpUEBQURFBQkr0vz8OFDEhMTefToEQ8fPiQhIUH+rPGlHz16RHR0NDExupMolGplJyQkMGTIEH799Vet/XXr1uXVV1/lhRdewM/Pj6pVqxY4un7z5k3OnDnDmTNn2L9/P2vWrGHNmjXy8YkTJzJs2DDq1q1bVLGLBYlnscPG8ueff2otGzVgwAC++uorvLy8dN9IkgodynD48GEWLFggZ8D08vJi27Zt2NjYFKq8gtCEMpgqbmT58uWMGTOmcJbt4uJCSkoKHh4enDt3zuytsy5dusiZ3Hfu3MncuXNp164dQUFBRV6KxZIY5fplZWUhSRIpKSncvn2b2NhYizeD+/btS2hoKMHBwWzfvp3+/ftb9P5FwSjL1sRxmzosqzCMHz+erl27MmTIEHlBopwEBQVx584do8rctWtXgdnqi4JRys7MzMx31YycCCHYsmULhw8f5ujRowAGTZ2rXLkyLVu2pFWrVvTq1SvfZOKNGjWiWbNmhISEaCn7hx9+wM3Nzah3REJCAgEBAWYNkTNY2Zr1vqpUqaLzeHx8PO+99x5r167VW0bPnj1l39rd3R1JkmSXLT4+nuvXr3Px4kX279/P/v37tZY5adOmDVOmTKFRo0ZaZfr5+XHhwgWtffb29nlS+BdESkqKUecXBoOVren/ffvtt1m5cqW8f9KkSSxevFj+3rp1a959913efPNNbG2fFy9JEnPnzjVawKNHj/LTTz9x5MgRhgwZAmQrftmyZSgUClatWpXHAIKCgti7d69Rk1AVCgWHDx82Wj5jMKoamTNnDh9//DF16tQhJSVFXmWjW7du7Ny506gV6gylQ4cOdOjQQf6+aNEi1q9fj6+vr+z65V40ArLdLUMXnRg9ejSDBw+WF7wwF0Ype/bs2URGRvKf//wHgEGDBrF582azCKaPSZMm0bBhQ2bNmiWngMvMzCwVC3Aa3ev3008/yZ9/+OEHbG1t2bKlcGnujEGtVvP555+jUqmYNWsW9evXJzQ0FBsbmwJXAPHz89NaNa+4MMqyIyMjiY2NJSIiglq1ahEWFkbnzp0ZNGgQgwYNAmDgwIGMGjWK1q1bs3z5cn755RdOnToFGOaNQPa8waZNm1KxYkXu3LnDtWvX5GP+/v58/fXX8upLJ0+eRKVSsWDBAj744AOd5R07dgwhhNlanIZilLI1L0bNklGtW7cmISEByE5VMX78eLZt2yanrMhNlSpV5JWoXVxc5CWvEhMTiY6Olhd/yMzMJDw8PM/1PXr04D//+U+e1fEqVarE9u3b9Sq7d+/eJCUl8dJLLxVri9MoZeua+jBt2jStRRi6d+/OjBkzaNmyJbt37+bEiRMcPXqUsLAwoqKi0JfTxMnJCT8/P7y9vWnZsqW8XhhkeyQrVqyQXULIrrvffPNNILvr1tvbW6/cP/zwg5zTJCYmptjSlxqlbM3Sra6urixZsoThw4cD2YsW7969O0+6oyFDhsjuWlE6onJ6JElJSYwePZpFixaxaNEiWcnffvut3uunTJmilcHB0i91DUZ3RMXGxlK+fHmGDx+Oj4+PXB9bCldXVzZt2oQQAj8/P8LDw2nRokW+bufUqVNJSkqifv36uLm5WVBabYz2Rj799FMgu5X2999/4+HhgakWFDKE9PR0goOD8fHxISsrizFjxnDu3Dl27dql95otW7bwww8/8Ndff1lMTl0YreyQkBDGjRtHWloaf/31F/Hx8TRo0ABJkujUqZNZLP3x48d8/PHHqFQq/P39CQ8PZ+LEiYSGhjJq1Ci8vb35+OOP9V6vqYYyMjLYuXOnyeUzlEL1Z3/11VdA9kMIIUhLS2P06NGsW7dO68Xm6OhI9+7dadGiBZCdGi4xMVFrHDLnGuwKhQJbW1vi4+MJCwvLM7TVrFkzPv/8c3mYTMPkyZPl94cubt++rTPrjqUplLJnzZql5YE4ODiwdu1a1q5dy6ZNm/jyyy8JCwsjNTWV//3vf/zvf/8DYMOGDYUSskuXLrz55pt6PY7vvvtO77XXr1+npCSuMVrZo0aN4quvvmLQoEFyI2XevHnMnDlT67wOHTowatQoXnvtNZycnPJ4IwkJCWRlZemdI/748WN27drFzz//zOHDh+VOInt7e+bPn0/Hjh0BOHDgAKdOndLrY8+ePZurV6/i5+eXr8diCYxW9vLlyzl27Bg+Pj5UqFBB7npt0KABW7dupVWrVgaVo2/dXg2enp4MGzaMYcOGyfsOHDjAJ598wvvvZyeCrFKlClFRUfj5+fHaa6/pLGfTpuxcWPPmzcPHx4eTJ0/qXTLc3BTqrnv37gWe93EPHDiQK1euGKzowtK9e3d+//13+R8VFRWFQqHQ6uLVx4wZM1i5ciW+vr7F5mcbrez79+9Ts2ZNPD09EUIQHBzMtm3bUCgUSJLEoEGDOHfunEmFPH/+PJMmTUKlUtG+fXtCQ0MZMWIEf/31F2q12uA0eS1btiQ0NJTTp0+jUqkIDAzk7bffJiwsTF6W3JwYXY1Ur14dpVIpW/WqVatYtWoVV69e5a233mLLli15egE1Fr9nzx4qVKiAu7s7Hh4eODs7k5SURFxcHE+ePCEmJoazZ88Y6wK9AAAeZUlEQVRy9uxZbt68mefefn5+fPLJJ1qB7KGhoahUKl577TW2bt1q0DMsXLgQyB66S05OZvLkyXJz3pwUyhu5fz9veuiGDRty/Phx+fvly5flXr8zZ84A6F1VVBd16tShS5cuBAUF6R2K0zB+/Ph8PRJ9SJKUJ/erOSmUsnMv9a2Lxo0bExISQkhICFC0vpGCsNSCx0WlUC/I3I2K4mbZsmV5BoJLIkYrOyYmhuTk5AJdN0uQmJgoeyYbN24sdDk3b960yGolRiu7YsWKxMTEkJiYiCRJWn6wpRBCMGzYMLp06YK9vb3e6qlZs2ayn50f8fHxtGnTxtRiyjwLahKFqkYqVqyIEIKhQ4eyfv16JEmievXqmHs52p9//pl27drh4+PDxYsX+c9//sOxY8f0nv/f//6XkJAQnj59qvecvn370qdPH3OIK/NswCSqSE2p9evXI4Tgm2++4f79+3Tp0kVe8L5ly5Z8++23REdHF6rsu3fvsnTpUnr06CEP1H722Wc4OjqyfPlyQkND5STn+lAoFGzfvp2OHTvmCR6KiYnB398fDw8PZs+eXSgZDeVZFNn9QocM6+PXX39lyZIlciuzqCgUCl5++WXefPPNItWrH3zwAYcOHZK/u7q6snr1ap2x3qYOGa5Tpw4RERFfSoA4f/48zZo1M0nBukhJScHFxYXRo0fL3avx8fEkJSXJc2c8PDyoVKkSLVq0oFmzZsXWfwGmV/aznIadJeD80KFDm61fv76AS4p+w9KW18+UyhZCSACvYoElSCj+ZWGN3kzBhQsXnmeGF0IgSZJQq9VmT+Gpq7+jpGKqeTuNGzfmypUrO4QQr2r+KnHjxo0zyS9pRRuy/yUOIseiQG2XLl1qkl/SynOejR5lCSGyQ73E8+Wu1NOnTy9eMyhjkG3VTUTu9SAlSaoK3LdE3f1vICAggMOHDycKIeROJK3FNyVJOqdUKps/efKkWAQsK1y9elXTC2knhJBXKdJqOQghWiQkJDB+/HhLy1emeKbo0TkVDeRdwxdQAmLt2rXFU9GVcp4tnPyPMHQpcKAeIFauXFlcMpdK7OzsBBAjjF13HagPCKv/XTBPnz7VeB7XRWEXuddUKUqlsjieoVSwZs0ajaI3iQIWuc/3oHiu9HBAWP3w58TGxmqqDQF4C0P0aMhJIlvh1QH1v71qOX78uHBycjLYmkVhlC2eK70+EPfsZmLIkCEiPDzcgo9rWVJTU8XKlStF1apVc/YILhVG6k0URtlCW/H9gPPo6J4sY5saWAS4F0VfWi1ISyJJkifwItDl2da0WASxYmouAoeAw8DvQojY4hDCIoYtSVJDYCrwOtnepEyNGjXo0qULAQEB+Pr6Ur9+/VIxDd3Kc9LT07l27RqnTp3i8OHDHDp0SFfm7SfAFuBLIcS1vKWYmKJU9/m8NmsCP/LMUQSEs7OzGD9+vDh16lTRnAMrpY5Tp06J8ePHC2dn59wux1aghjCHDZqsIGgDXNAI7uDgIGbOnCni4+PNqDIrpZH4+Hjx0UcfCXt7+5yGfh5oLUqCYQNuz2pmAQg3NzexadMmsyvGStliw4YNQqlU5jTyrYBSWNqwgQbATY0g7777rkhLS7OMFqyUWVJTU8X48eNzGvgNoL4wt2GTPVAWBQhbW1uxatUqyz21lX8V69evzzlS8BBoJExt2M9cjrOAkCRJrF+/3rJPaeVfy9q1azWhCgI4Y6iLYohRj9e8Gt555x2LP5gVK0IIMW7cuJwuyhhRWMMG7J61VIWbm5u4fv16cTxPkdi4caMAxIgRI/IcS0lJEe7u7sLGxkbcu3cv33KuXLkiJEkSNWrUEJmZmUIIIQIDA2VFL1iwQO+1kyZNks8LDg7Oc/yrr77K3XCSt3r16onTp08b+dRll2vXruXUVThgK4wxbKAGkAiIbt26FdNjFJ38DFuI7P5VQDRp0kRvGZmZmaJGjRpCkiRx9epVeb/GsPv37y8Anf3z27dv1zonp2FnZWWJypUrC0CcOHFC572fPn1q7S7VQUBAgMa4E4DqwhDDBrw1AyszZswoNuFNQUGGLYQQISEhAhBjxozRefyNN94QgFi9erXWfo1hnz59WnTr1k2UL19epKamysejoqKEnZ2dGDFihNi5c2cew87IyBAODg7CxsZG3L59u4hP+u/jgw8+0Bh3FtBM5GfYz3o9MsqCUQthmGELIURQUJAAxObNm7X2L1u2TO/1OQ07OTlZuLm5iV69esnHW7RoIerVqyfUarVOwxZCiMjISNGpUyct98PFxUX07t1brFixQqSnpxfh6cs+OYw7E2ggdBk24MizsL2yEitpqGFnZGSIqlWrChsbG3H37l0hhBAXL14UgGjQoIFQq9V5rslp2EIIcfToUQGIhQsXinfeeUcoFAoREREhhBB6DVsXcXFxYu3ataJGjRoCEIGBgcY+9r+KsWPHaow7DnAUOgz7f5ofsqxgqGELIcTly5cFIBo1aiQyMjJEtWrVhI2NjYiMjNR5fm7DFkKIzz77TK55161bJ+83xrBz4urqKgBx69Yto677t9GoUSON3neIZ/asAJAkKQjoDcgpgMsSjx494p9//tG5aZYGadSoEStXruTKlSs4ODhw//59Nm/ebNQygDNmzJArCs0CDPpITEzE3d2dyZMnc+7cOa38eH/99RctW7YkKSmJQYMGUbt27UI997+F7du3az72lSSpLyCnvLgANNUk1CorXLx4scA/ap06dbQyEm/ZsoWIiAgaNWqUb86prVu3cuvWLYYPH17gMobXr1/np59+wtvbm549e8r7MzIyOHr0KL///jsRERFER0fj7OxMvXr16NGjB127drVOZTeQwYMHaxIYhwshWkpkB/kfguzkveZMDWXFirk4d+5czoUCOiuAPgD16tWzGrWVUkuLFi1yumx9FEBnyF4RzYqV0kxgYKDm44sKoBpA1apVi00gK1ZMQQ4brqYAKgHFthyiFSumIscyGFUUgARYW99WSj05bFgqvmzUZuL27dsEBgbKSz9ZN9Nujo6ODBs2jPT09OL+qfOlUIv/lGSGDRvGkSNH8PT0pHfv3sUtTplj7dq1rF+/nkqVKmmt/VnSKHOGraFy5cq8++67xS1GmUIIkWfxk5JKmXNFrFgBq2FbKaNYDdtKmcRq2FbKJFbDtlImsRq2lTKJ1bCtlEmshm2lTGI1bCtlkjI78lgU7ty5w2+//YaNjQ2urq7Y29vj6OiIk5MTdnZ2uLq6Ymtri4uLC/b29jg4OODi4oKNjU1xi27lGVbD1sHly5dZsmRJcYuhF0mSKFeuHLa2tjg5OeHo6Ii9vX2eP5zmz2hrayuf7+zsTLdu3VAqlQXfqBRjNWwd9OjRwyQzitLS0uQtPT2dtLQ0EhISSE9PJzU1Vd6n2RITE7XOz3mO5rqc5yckJBAba/zaRZ06dSrys5V0rIZtRhwcHHBwcChuMf6VWBuPVsokVsO2UiaxGraVMonVsK2USayGbaVMYu0VyYcbN27w+uuvG3y+pu/Y3t4epVKJg4OD3s8ODg6UK1dO67Ouax0cHMp8n7M5KJWGHRsby4ULF7h9+zaRkZFERkZy584d7t69y4ULF4DshJQqlapQ5Ts6OlK1alXc3d1p2rSpbHw2NjbylpyczNOnT0lLS5M/p6enk5CQAGRneC0JVK1atUxm0C2IEmfYT5484dChQ+zfv5+DBw9y/fp1o65XKLK9K0dHR+rVq4eLi4s84qapUQEyMzNJSUmRB0JSU1PJyMggJSWFR48ecevWLaPu6+bmRrt27fDz86N9+/Y5k7eYFM0fKCkpidTUVNLS0uTPmj+WZiAnMTGR8uXLm0WOkk6xGnZoaCjff/89P/zwA0lJSTrPqVevHm3btpW3Nm3a4OHhobfMzp07c+TIEerWrWu2GdXp6elcv36dS5cucenSJS5fvsy1a9f47bff+O2337TOVSgUtGvXjqCgIDp37iz/8QqLk5MTTk5OuLm5Famcso5FDfv27du8//77/Pzzz1r7bWxs6NOnD0OHDqVXr144OztbUiyjsbe3p2nTpjRt2lTncbVazdmzZ9m3bx979+7l+PHjHD9+XD5et25dpk+fTtu2bS0l8r8Osxt2VlYWY8eOZeXKlfI+FxcXpk+fzqRJk8pkw0ihUNC6dWtat27Nhx9+CGQb+4EDB1iyZAk3b95kzJgxQPZKCl9//TUVK1YsTpHLHGY17Dlz5vDJJ58A2RFpn332GR9++OG/Mk+gQqEgMDBQTnV76tQpPvzwQ65cuULPnj1p1aoVy5cvN8hVUavVREZGcubMGVJTU00qp6urKyqViooVK5bq38lshv3222+zatUqAEaNGsXy5cvNdSudpKWlERoailqtJiEhAbVaTVJSEpmZmXIDzN7eHhsbG5ydnbGzs8PJyUnuAXFycqJy5cpUqFChyH6xLnx9fTl06BCHDh3igw8+4MyZM/Tp04edO3fqjet+8uQJAwcOJDY2lsaNG+Pn54etrWl/wgcPHvD9999z7949GjduzNq1a0tlnLlZDPvRo0eyUbdp06bIRn3lyhWtBZHCwsLkbjV93Lhxg7FjxxbpvgWhUCioWbMmTZo0oXHjxjRp0oQmTZoY1UYICAggODiY1atXExUVxb59+3j55Zd1nrtq1SpiY2MZMWIEEyZMMNVj5GHSpElMmzaNw4cPs3PnToKCgsx2L3NhFsOuUKECHh4exMXFcf78eaKiogrs/nr69Ck//fQTW7Zs4cCBA6Slpek919HREV9fX9q2bUvz5s2pWbMmXl5e1KhRg6CgII4cOULTpk1Zt26dSZ4nIyODmJgYoqOjiYqKIjIyksuXL3P58mVu377N7du32bt3r85ra9SoQbdu3ejVqxd16tTRec7JkyflzzVr1tQrx9ixYzly5Aj//e9/2bVrF23atDF5bZqWlsapU6dISEjAx8eHV1991aTlWwqzuSJ//PEHbdq0IT09napVq/Ldd98xbtw4+fi1a9eYO3cumzdvJjMzU+taZ2dnBg4cSN++fenevXuxJ6W3s7OjevXqBi2Nl5WVxYULFzh69CiHDh3i1q1brFmzhjVr1sjneHl5ERwcTN26dZkwYQKJiYkATJ48mRYtWugt29nZmR07diCEYOnSpaxevRp/f38GDBhQ5GcEWLJkCTdu3GDOnDn06tXLJGUWF2Yz7BYtWpCamspbb73Fxo0bGT9+POPHj8fFxYXk5GT5PAcHB95++22mTJlC/fr1zSWOxbCxscHb2xtvb2+tP3J6ejoHDx5k1apV3L59W25UA7i7u7N582aDe0YkScLJyQnIzuJvqhkxGzZsALJ7rUo7Zu0VsbGxYcOGDQwZMoQ+ffqQmZmpZdTu7u5MmDCBMWPG5PsKLs2kpKSwb98+1q9fz507d+T9kiRRp04dbt68SXx8PD179sTf35+QkJBCNQgfPHjAzJkz9Q50tW3blunTpxf6OUobZu/Hfu2119i2bRsA/v7+7N+/nzNnzvDpp5+yd+9ePvvsMz777DP5fCcnJ1566SUCAwPp0aOHXr9UF5rhccjuQVi/fj3x8fGo1WqSk5PJyMiQ4zvS0tJQq9UoFAqcnZ3lSbA2NjaUK1cOGxsb3N3dqVSpEpUqVaJq1ap4enrq7SFJSEggNDSUEydO8Mcff/D48eM859SuXZvg4GACAwO1fOP9+/czc+ZMjh07hr+/P1u2bDHquSE7JmTx4sV6u//+bSOVZjXsdevWyUY9duxYli5dCkCHDh3Ys2ePfF5iYiI7d+5k27Zt7N+/n59//jnP6KSx3Lt3j0WLFhWpjMIiSRLNmjWja9eudO/evcAV2Xr06IG3tzevvPIKarWaKVOm5FxG2SBu3rzJuHHjSElJ0Sp31qxZhXqG0o5ZDfvhw4fy5yZNmug9r1y5cgwYMAAhBElJSfzxxx9kZWWZU7QioVQqqVatGk5OTqSlpREdHa1VQwshuHDhAhcuXGDx4sU4ODjQoUMH+vbtS/v27XXW+pUrV8bZ2Znk5GTi4uKMlqlu3brs27evSM9VljCrYU+cOJGQkBDu37/PpEmTqFixIm+88QYAcXFxzJkzh+XLl/P06VOt69zd3enbty8DBw4kICBAbigZgiYISjNUnZ6eTnJyMllZWSQmJpKVlUVmZqY8CKPJuWFjY6OVj6OoJCQkcPToUQ4ePMjx48flwZiczzhs2DDeeOMNhBAMGzZMbn+88847Rt/vwoULBAcH660QGjZsyKZNmwr3MKUQsxq2nZ0dd+/epVu3bhw+fJjBgwczbNgwre49hUJB7969mTNnDm3atDHZvW1sbIo1/kKpVNKzZ0969uyptf/MmTOsXbuWP//8k8WLF7N48WL5mEKh4Pvvv6d169ZG369Zs2Za/eH/dsw+NUyhULBnzx75x8pp1G5ubsyZM4cNGzaY1KhLMpmZmXp7LtRqNTt27ChUuf/88w8qlUprGzVqVFFELdWYvVfk1q1b1K9fX+6B2Lt3L7Vr12bixIns3buXWbNmyQ0cSZLo0qULr7/+Oq+++mqpjnhTq9WcOXOGgwcPcuDAgTx+s7u7O+PHj6dfv34oFArWr1/PokWL2LVrF8ePH+fXX3/F3t7e4Pu1bduW0NBQUz9GqcXshj1q1CjUajWQ/RrWjKzl7BW5ePEiy5cvZ926dbIvqgnr1ODk5IS3t7fWhINmzZphZ2dn7kfQSWxsrDzRQLPFxMToPb9169b079+fgIAAnQb75ptv4unpyezZs4mNjeXbb79l8uTJBstz4sSJfH3zSpUqsXv3boPLK+1YJB5bgz4jbNq0KV9//TVff/211nWnTp1i//79HD58mLCwME6ePGmwH1mUOY+FQaFQUKtWLVq0aIGfnx++vr5GT8vKOTCjqQwMxc/Pz1pj58Dshr106VKaNm2KEIIWLVpw5MgR2rdvn+814eHhbNu2jd27dxMWFoYQosD7KJVKypUrx+PHj0lNTcXOzg6lUokQgtTUVNRqdb6xywqFQu4lsbOzw9bWVs5eKoSQJ+3Gx8eTkZGR53q1Wi0HRP3666+4urri6+vLiy++SKdOnXB1dc1X/p9//lkeqFIqlQb3jGzfvp3t27ejVCrp2LEjQUFBtGzZ0qBryzJmN+zGjRuTkJBAu3btuHjxIv7+/jg7O7NkyRKGDx9OWFgYn3/+OTt27NBpMFWrVqV79+507doVlUpFo0aN8o1o03T3NWjQwGTRfYaQlJTE5cuXOXv2LCdPniQ8PDxPFx9kx3YMGjSI/v374+DgwLJly1izZo1cQ7/44ossXLjQ4CD/oKAgZsyYQXR0NLt27WLatGnExsbi6OjIjBkz9IbAlnUsMufR1dWVCxcu8PjxY4YOHcrevXsZMWIEI0aMkM9xcnJiyJAhjB49usAavSSimXmiUqkYOXKk1rGUlBT27NnD9u3buXLlSh63C7INdOrUqUY1GHNSuXJlgoODCQ4OBmDXrl3MnTuX2bNn065dOz755JNS3Rg3FotN5r169SpdunTh/v37wPMgoNu3b5OVlcXTp0/l8E4vLy8GDBjAgAEDaNeunVlmsJib9PR0QkNDOXjwIL///nueiRH29vbY29vLXX/bt28nKyuLmTNnmuR5e/XqRa9evUhISOCbb76hV69eqNVqKlWqRL9+/ejRowe1atWS3wxCCKP9+pKM2Q1bCMFLL73E/v37AahVqxaHDh2ibt26WufFxcWxdu1a1qxZw9mzZwkJCSEkJCRPeU5OTrRs2VLuGWnbti0NGzY0anSyqCQnJ3Pz5k059cKlS5e4efOm3lE/hUJBmzZt6NevH926dctTK69du5ZvvvmGnTt38ssvv7Bo0SL8/f1NIqtSqWTmzJnMnDkTgPv373PgwAHmzZvHtWvX5NFOR0dHWf6coRClFbMbdv/+/WWj/uabb/Q2ijw8PHjvvfd47733tPbHxcXx22+/cezYMXla2IkTJzhx4kS+97V0r4iHh4c8PaxNmza0bt3a4KTvb731FkOGDOG1117jzp07TJw4kZUrV9KqVSuTy1mtWjXeeust3nrrrTzHRo8ezenTp01+z+LA7Ia9a9cuILvRVJgYCA8PD9ktKYioqChefvllwsLCqFKlCt26dSMlJUXOkpSSkiKP/Gliw5VKpTyhN/ciSm5ublSqVIkqVapQpUoVKleubLZ0Eba2towZM0auWf/880+zGPa/BbMbdr9+/di6dStRUVF89dVXTJkyxWz3qlKlCuXKlQOgfPnyeWr/kkx6errWgk5dunQpRmlKP2ZvlW3ZsoU+ffoAMHXqVKpWrSonjrSS3Qb57rvv8Pf35/79+3IgVPPmzfO9TuPm5Dfp2Vg0/fyWbK+YC4t0N+zcuZNbt25Rq1YtoqKiaN68OZIk0a9fPyIiIiwhQolCCMHu3bsJDAzEx8eH1atXAzB06FBOnTplUOqzgIAAAA4cOCBPBi4Kly5d4uLFi9jb28tll2YUQDKgNRfRHNSuXZuIiAgyMzNZsGABLi4u7Ny5kzp16iBJEnZ2dnJDsyx1O0F2A3jdunW8+uqrqFQqfHx8mD17No8fP6Z58+Zs2rSJ0NBQo1ynKlWqMG/ePNLT03n11Vd1TkUzlEuXLjFixAgkSWLZsmUlPneiPnJETSbZAg+A+lFRURa5uY2NDdOmTWPatGlAdhqGBQsWsGnTJnl4OCdKpZKAgAB55LFly5Yl8lUZExPDpUuXOHv2LCdOnODatWs6QwHq1q3LG2+8Qe/evYscwNWjRw9atWrF8OHDCQwMxNvbmy+++MLgdBXXrl1j2rRpREZG0rhxY5YvX15qjRqyJzQ/474tcBWof/78+WIRpkGDBqxYsYIVK1bI+yIiIvjxxx/ZtWsXx44dY8eOHQXGKTs4OFCzZk054XpMTAzbtm3Dw8NDa3aMZuaMnZ0ddnZ2ZGRkaM2wyZk3+/Hjx3KSHE3CHENrxooVK9K+fXtefPFF/Pz8Cj2iWBCaqL0nT54wf/58evXqhRACe3t7WrduTaNGjfD09EStVvPw4UPOnz/PhQsXyMrKwsbGhtdff5133nnHbPJZknPnzmk+XpGAMcAyTZb+0rDg5p07d/jnn384ffo04eHh8soGRXkdG4KtrS0VK1akcuXKeHl50bhxYxo3bkzDhg1NMp3MlGRkZPDw4UPu3r3LtWvXkCSJ5s2by7PtC5NBSgiBj48PAFOmTOHLL780tdiFJjU1FVdXV80g0yhb4CdgaVZWlrRx40Y51qAk4+XlhZeXl870W5ogKFOmOCuN2NnZUa1aNapVq0a7du2KWxyzs2HDBo1RC+BnWyHEI0mSvgXenTVrVqkwbEOIi4szOoWBldKJECJnmolFQojHmgaOB5AOiLlz54rSzNWrV4WPj48g+59r3Uy8KRQK0atXL/H06dPi/qll5syZo5EvDXATQiCJZy13SZIGAlshO/unr6+v3n+IFSslhRMnTuQMc+4vhNgOPDdsAEmSvgPGOTs7c+vWrWLPcmrFSn5ER0dTp04dTV6a74QQctJwLcMGkCRpIzBYqVQSERGR7wpdVqwUF7GxsdSuXVsz6rpeCDEs5/E8Q+pCiCHAloSEBKpUqcLly5ctJKoVK4Zx4cIFqlSpojHqjbmNGvTEigghBgHT0tPTadKkiZw32YqV4mbt2rU0b95cMz/2fSHEUF3n5XFFtA5KUgvgJODk7e3NiRMnSuRwtpWyT2pqKv7+/oSFhQGkAu2FEGf0nZ9vdJ8Q4pwQwhnYGB4ejrOzMwsXLjStxFasFMAXX3yBk5OTxqi3CiGc8jNqKKDG1jpRkqoAR4G6dnZ2/Pjjj3KctRUr5mDnzp0MGDBAk+/xBtBBCBFtyLUGx2MLIaKEEPWA1hkZGdF9+/ZFoVCUqHgBK2WD+fPno1Ao6NevH5mZmdFAKyFEfUONGsgejizMBlQBTvNsRKp169bi6tWrZh1hslJ2uXLlimjVqlXOUc5woLoorH0W9kKhbeTDyJ6wIADRuXNncf78eQuow0pp5sqVK6JHjx45jfkpMEmYwiZNUYhcWPbk4EnAE42wrq6uYuLEieLevXvm1ZKVEk9MTIz4+OOPhbu7e05jTgI+AeyFCW3R4MZjYZAkqTnwEfA6IAcAN2rUiKFDhzJgwAAaN25stvtbKT4uXbrEjz/+yIYNG7h69WrOQ5nAFuBzIYTZZnWb1bDz3EySHIFXgDeBl4A8c6NsbGyoVasWDRs2xMvLC3d3d1xdXXFxcSkwY6kV85KUlERycjJJSUnExcVx9+5drl69SkREhL55qhnAHmA98KsQQn+6WxNjUcPOD0mSKgLNgEZAQ6AxUBlwA1xzbFaKj6Qc2xMgCrhM9vTCq8B5IcSj4hPvOf8fqaeDVU67lCcAAAAASUVORK5CYII=;" vertex="1" parent="if22WZUiUY4eo4lCOcyr-71">
          <mxGeometry x="691.48" y="420" width="92.85" height="100" as="geometry" />
        </mxCell>
        <mxCell id="if22WZUiUY4eo4lCOcyr-102" value="&lt;h1&gt;Lio&lt;/h1&gt;" style="text;html=1;align=center;verticalAlign=middle;whiteSpace=wrap;rounded=0;" vertex="1" parent="1">
          <mxGeometry x="482.5" y="3" width="170" height="30" as="geometry" />
        </mxCell>
        <mxCell id="if22WZUiUY4eo4lCOcyr-114" value="" style="group" vertex="1" connectable="0" parent="1">
          <mxGeometry x="541.9967965644037" y="92.99679656440355" width="42.42640687119274" height="42.42640687119285" as="geometry" />
        </mxCell>
        <mxCell id="if22WZUiUY4eo4lCOcyr-115" value="" style="shape=umlDestroy;whiteSpace=wrap;html=1;strokeWidth=3;targetShapes=umlLifeline;" vertex="1" parent="if22WZUiUY4eo4lCOcyr-114">
          <mxGeometry x="6.21320343559637" y="6.2132034355964265" width="30" height="30" as="geometry" />
        </mxCell>
        <mxCell id="if22WZUiUY4eo4lCOcyr-116" value="" style="shape=umlDestroy;whiteSpace=wrap;html=1;strokeWidth=3;targetShapes=umlLifeline;rotation=45;" vertex="1" parent="if22WZUiUY4eo4lCOcyr-114">
          <mxGeometry x="6.21320343559637" y="6.2132034355964265" width="30" height="30" as="geometry" />
        </mxCell>
        <mxCell id="if22WZUiUY4eo4lCOcyr-289" value="" style="shape=image;verticalLabelPosition=bottom;labelBackgroundColor=default;verticalAlign=top;aspect=fixed;imageAspect=0;image=data:image/png,iVBORw0KGgoAAAANSUhEUgAAALYAAADFCAYAAAGOQTj9AAAACXBIWXMAAA7DAAAOwwHHb6hkAAAAGXRFWHRTb2Z0d2FyZQB3d3cuaW5rc2NhcGUub3Jnm+48GgAAIABJREFUeJztnXdcU+f3xz83gbBkyhDEgQsFqwJRcQCKo27r3ltx2zqq39I6Wq3V1q11gHW0rp/WUYtbUVFxFJxVqVsEGbI3BHJ+f8C9TUgCSUgC2Lxfr/uC3PE8556cPPe55znPeUBEKL0BiAJAKm4rZcoptaPCfPLJJ8SWx5RIipLaNQnDk1ewSCRCfHw899nc3By2trbcZwMDA6lSxo4dK1sywyhWR1FREQ0dOpSIiI4ePUo7duygTZs2ERHR/v37KSQkpFwVMQCiiMhVc9qQkB4ASei99K0pXZC8MgzknMcRERGhdOHy4JV/ivqUKTmLUCgEADRo0AA+Pj7w8fFBq1atNFO4uupRSi379+9HSkpKxQuXZyGjRo2CjY0Npx61Cjc2NuZM6ptvvoFQKOQ2QLF6wsPD5e6XsnOxWIykpCTY29sDACIjI2UuEAqFiIiIwMqVKxEYGMjt9/LyKltyPp+P3NxcWFhYYPPmzZzUa9askSqY5e3bt3IlZpGyli+//BLz5s3DjBkzMHv2bLRv377Mi2/evIl69eopV/iPP/4IhmHk/pQBoG/fvlLSv3//vszKpdRSt25druABAwZIfaF37tzB0qVLpdQyb968MguXabgMDQ0hEokAlP2Flta/vC+UATCOiPbIq3nWrFl4/PgxBg4cWK7+5RZeIrWmH3EICQkpLpxhGIVtegUofoYSETNjxgzNlcowUSgpWLK/sl4kEqncnWCxt7cnKqPfAgDjoXqHKKZ0OVKFF99ExQEwWKrw6dOna6RgiQpWU4mBbJRzUOovEdG2bdvI2tpa6ryNGzdSdna2wjp4hYWFc0p/22wPikqZZ3JyMsaPH899HjJkCExNTRVZzHdaMfCSwhU/Q+fNmweGYZTe5KHw6R8ZGan0U1/Rs7XqdIrYDpGPjw/s7Ow0U7hWO0V37tzRTOFWVlYyJ7Vp0wbr1q3D0aNHVSpcoZ3z+XyIxWIAwLBhw/Dll18CAB48eIBJkyZJqUooFMr84BiGkS5c8snv5+eHdevWSV3Qo0cPnD17Vmof+2XLK1xKLVT8VEJeXh5u377NPfnT0tKwe/duEBFXWHkdIkDBF2psbIy2bdsiIiICERERsLKygqWlJQwNDblzbt68qVrhZb0DDRw4EPHx8bh16xaA4n5NeSj8QiUrsrW15XRdur+itM779+/P/e/r68uphS04JCRE5gfVvXt31SVv164dbGxsYGdnh9mzZyssgJVerimijPfQCsLwqPgtWqMsX768uPQS265LROUbrhIUFRWBz+czXOEsFe3WMQyTTUQ1uB0kpzNTUsEmAFRYWKhkh0KzODo6EoBshfKVErburFmzKkXQsigqKiIUe25U7yn6+flpXcDyWLFiBZGk4OUJLUmHDh2IiMjb25vEYjG338PDg6i4MNq2bRsREfXv359CQ0O5/aW5evUqd2z48OFK1V/iWANQ/CanMgUFBQqP3bp1S6Wyzpw5o9L5AEibDaLWYBhGuY5caeR1ODSBvMeNIrTad9YmesFVITY2FmFhYdi7d6/aZahl4xWldu3aqF27Nnx9fdUuQ2nBY2Nj0aZNG87Hp+iF87vvvkOvXr3w4cMHvH79Gi9fvsTTp0/x+vVr/PPPP9wrSoMGDXD48GG1BVfYHA4aNAgMw+D333+XOaZsqyISidCuXTuV3r6VaVXKbA6PHTsGIsLjx4/RvHlz8Pl8PHnyBE2aNCmz0KysLAwcOBApKSlYsmQJVqxYAbFYDB6Ph4SEBPTu3Vvudaq+OysUnM/nAwB27twJoPhlxdTUFP369UNYWJhcU7GxsYGLiwtSUlJgYGCAfv36Afj35cbBwQEDBw7E/PnzYWRkxF2n6hhCmYIXFhaCYRj8/fffWL9+Pbf/5MmTKj2AhEKhzDhDREQEOnTooLKwkigUfNGiRVL29ubNGzRq1AhFRUWcQIqYMGECZs6cyQkp+ToZExNTYaHLFHz16tVgGAbv3r1DnTp1YGZmhvT0dJiZmZWr8Z07d0IoFMLe3h6dOnXC4MGDuWPOzs7c/97e3mUOcagl+PXr1xEZGQlnZ2el+w8skydPxuTJk7nPQqEQ//vf/2TOY70G6tg4D8A/8g507NgRnp6eAIAuXbpwnsgLFy4oLCw9PR1TpkyRGl8DpFuMwMBA+Pj4cJ9LeyWUhoig6nvlF198oaqjXulNyf74d+xr/gYi+lz129Y9Jf48btDmCwDMtGnTKlmssmEYZhWxzhqS75pQyXS0ibu7OwHoTeUEySi6kbEAnkBLdi2xRQP4XimZlBDaHMBRAKk6EPwvAN5qCw2A5s+fr53vvhxu377N3oSzUkIDSL527VqlCCuPkt+ZlIwadUZqC7bZYz/zJA5USYEBbniEE44HAAzDjC5P4P3791e4cnbgQZVoLxYpwYkIhoaG5doWn88nd3d3STuT+v/AgQOcz7B+/fpERJSRkSHPPrm/O3bsoHr16hER0cWLF8uV4e3bt5w1dC/3bAlOnDhBHz58IBMTEyLiIg2kCAgIICKimzdvkuTQfWmh582bR0REqvzwUdyqKPcUDA4OpqVLl3Kfr1y5QkREv/76q8y527dv54QNDw+nu3fvcsd27NhBO3bs4I4RERkZGSkttIWFhXqP7m+++abM46p4YhctWqRS3WlpaYS5c+eqdFFVgFeeC6EqopYvUJVYDFW2AwcOKFW/Wn5ANzc3/Prrr+pcWiYHDx7EyJEjyz2vWrqL9ULrimoptEYc8qUdMRYWFnBxcUHt2rXRsGFDuLi4wNnZGQ0aNNBEdZoRWhUnTEZGBqKjo/Hq1SvOA6sqOh/6sLCwQPPmzdG8eXO1y6iWNq0xoc+dO4dnz55pqrgyUdo8li1bhm+//Zb7LM8L6unpie3bt0MkEuHVq1dS29OnT5GUlMSdW5HpJGUK7ePjg+vXr+O3337DsmXLsGzZMgCAu7u7wsd4Xl4eOnbsWGHBykKh0GWF8JeFsbExJ2zbtm1x8uRJODg4qC+hHOTatJWVlVyBHz58iM6dO+PJkydS0wWEQiFGjx4tE8t3+/ZtqdEvdnikNH369FFJaLmaHjFiBPe/ubk5srKysGDBAvz000+4fPlymeaxb98+bNiwAYCseXh7e8tVRq9evSou9LZt27g+LjsyqyyjR4/G6NGjIRKJIBQK0bZtW+7YjBkzMGHCBJXKk4dCm7awsEB6ejrno1iyZAk8PDwwYcIEpKWlyW09PDw8cP/+fRARtm7dioiICPz0008y5xUUFEAgEKgttMJ2mn1imZubAwDs7OxQt25d9OzZU+bcZs2aYeXKlQgODsbly5chEAgwY8YMZGZmol27djLnx8XFITc3V22hyx0kLW2DBw4cwIMHDxTadI0aNbhB0Q0bNmDfvn1Stk1EiImJUXuoDihD03fu3OFCjHk8HrKzs5UutHPnzhAKhZgxYwb++usvnD59mjtWVFSEd+/e4cGDB2oLXe4TkdX0xIkTsXv3bm6/onFBS0tLnD17lhsnJyLweP/qRiwWY/jw4WoLXKbQqamp3I9w5cqV2LVrF3bt2gWg7CciUPxDEwqFMDY2Rl5enpR5CAQCtGnTRu0gfKAM82jcuDGuXLkCS0tLBAYGcm1veWRkZHCDnufOnZN7zp07d/DmzRsIhUL4+/urLLRCTaenp8PPzw9paWncvj///BMTJkxAcnKyXPPo1q0bfvjhB9y+fZvbFxERgQMHDsi4BurXr69230Sh0OwEPEn69u2LpKSkcs1Dku+++w5LlixRSzhFKDQPtuWIiopSu3ChUIjWrVtzn+U9DZcuXapyubyyOu5EhHr16nGP9CFDhiA/P1/h+adPn+Y6UKtWrUJERITMw2jo0KH48OEDgOIf+IIFC1QWWq3Y1Tp16sDPzw+vX7+Gg4MDnJ2dy5wFpiwHDx7k5t4qgv2NqexqhZYGPw8cOFBu3RYWFsQA6EZE5yukIh3CMAx4RHShIj0uXRIdHQ0iYtj4j5FEVPExNy3DDoJyI7ZVefATkB615dppImLUGZTUBQqHmQFO8OSygq50TWmBAZQdOvH555+r3Bxqghs3brDNoJNc2RQJLSF8DQBHAKRA+0EqdwC0KU8mqdAJFb+27gCOATBj93Xu3BmtWrWCg4MDrK2t1Sq3KkAlr4SxsbE4e/Ys4uLiJA//BmACEcl34pRXsDIbgCEAyNDQkKKiorRt2VWeOXPmsFYdh5LJh+Vt5SnYDADVrVtX93dTjbhz5w6r+EukqrJR3N7R5s2bK0f6akyJ0m+TkjF6SXXq1KlQhZaWltzDw9TUtGLSV4AhQ4ZIfYYaLz/qkJKSwt5/PVKkbAAUFhZWoYpat25Nv//+u8z+xYsX065du7jPY8aMoQsXLhBRcSyXQCAgNzc3Mjc3p0WLFlGLFi2IYRi6ceMGERVnQpk2bRo1bdqUXFxcqEWLFlxZAMjPz49sbGzI19eXiIhmzJhBAMjLy4u8vLy48wQCAbVr105uAByLQCCokA5YSiL01lJpZQOgZ8+eaaQSlps3bxIAys3NJSKihg0bUnZ2Nl2/fp2GDRvGnWdnZ8f9z84KZmEVsW3bNlqzZg23f9GiRbR//34iInJyciIej0cNGjQgAwMDmWvlfb569SoXdBcfH0/e3t5yr6koPB6PAHxHrLIBZLEVV5SGDRvSiRMniIgoLCyMAEhNsQYgE5wnGaVYlrKNjIwoLS2NEhISuP0JCQlUs2ZNIiL6v//7PymrBEDXr1+nly9fSpVFJK1sIqLNmzfLyKopSpoUY6A4Ql3jFcgjKytLbcvZtm0bbd++XcMS/YuHhwc9evRIK2WvXbuWABQwAI526tRp4OXLl1Xuo+tRHja1S1dVB4H1qIcBAAt22FbbZGRkKAxVqGoYGRlV2CFfGp1FlPn5+SEpKUkrwbfaQCgUYv78+eWOXqhCtYyEq67ola1D9MrWIXpl6xC9snVIpaT2UcTJkyeRmpqKjIwMZGZmIi0tDampqUhNTUVKSgoyMjI0Wp+2YpUVUaWUre6MiOqCvhnRIXpl6xCdNiOFhYV4+fIl0tLSkJaWBhMTEy7TsLm5OSwsLNRK6VMaY2Nj1KxZExYWFrC1tYWtrS0sLCxQs2ZNODo6onPnzhq4G9XRiLKDgoIwY8YMKb8Hn8/HsGHD0KlTJ25dBQMDAzRs2FBhOQUFBQgKCsL9+/dx/fp1PHz4UOp4w4YN8dNPP6Fu3bqaEFvnqKXsn3/+GbNmzQJQHML51VdfISAgoMLCCAQCeHp6wtPTExMnTpR7TkFBAUaOHMnNN7t27RpMTEwqXLcuUEnZ9+7dg6enJ/bs2aPWbCtNIBAIpKaqd+3aFWlpaTLduEePHqk8PcfV1VUj2UUUoZKyPT094eHhgXHjxsk9/ssvv2DRokVITk6WOWZoaAhjY2OsWbMGVlZW3Mb2qTMyMvDhwwc8ePAAsbGxMtfzeDyMHz8e06dPl0qRcvHiRQiFQpw+fVpqctaECRMQGhoKCwsLpe+vc+fOePjwIVq0aKH0NaqgkrKpJByeYRikpKTA3t4ehYWF4PP5OHbsGCZNmoRJkybJvZZ1saoTNS5JTEwMAgICkJiYyO1r06aNzCy4iIgI7N69G3FxcVKrNClC7bR1KqBy1+/NmzcAiufPFBYWAgA6deoklW9PW4SHh2PYsGGcon/99Vf88MMPuHPnDjZt2qTwuqioKKn5mIp+mdpG5Qdk/fr1sXv3bqnFZoDiKbudO3fGlStXFF7L5/Px2WefwdLSkgu8ZJuQ9PT0cpdUMzU1xaJFi6TeNN3c3NCtWzcIhULMmjVLaiaX5HXW1tZgGAbnz1derL/Kyt6yZQsmTJgAR0dHDB8+HGlpaeDz+Th+/DjKGjTW5EhNSEgIN2fb0dERcXFxqFOnjlxFA8X97jp16gAonpLn4eFR7qoW2kDlZoTN8jpgwABuQsvUqVPRt29fzUpWBmzzBQBOTk7g8Xh49+6dwvONjY3h7OwMZ2dn7Nq1q1IUDahh2U2bNgUA5OTkSO2/fPkyRo0aVTqWGY0aNULbtm3x6tUr5OTk4Ouvv0ZWVhb3FmlkZAQrKytYWFjA2NgYBgYGKCgoQHR0tMy8ND6fjwULFmDIkCH47LPPpI6xyWZXrVolIzOrbKD4Bax58+blLmCnDVRWdlRUFBiGgYWFBefyfPXqFcaNGyelaDs7O0yZMgVTpkxB/fr1uWbk+++/587JyMgos2v2+PFjHDt2DKdOnUJhYSGKioqwevVqXL58GRs3buQWE2rTpg0AyFX0vXv34OfnB5FIhAMHDpSb0lubqPUGSURo1aoV19/l8Xg4evSojLWVR3l9YHd3d7i7u2Px4sVS+0+cOCE1633KlCmYOnWq3DI8PDxw5MgR7vOgQYOQkJCA8+fPazxUoTxUVnZISAj69u2L6Oho7qHDsnnzZixcuBB5eXlS+42Njbkm4uLFi7CwsIC5uTmsrKwgFoulXmyePHmChw8f4u+//5Zqm4HitAQLFizAZ599JvXFBgUFQSgU4q+//io3J2Tp5cxEIpHMosnaQuVaPv/8c/D5fBlFA8Ds2bMVPnzYZqRr164yx2rXrs39L+94eQQEBCAoKAhHjhzB0KFDVbpWcl0zbaNyb+Tly5do1KgRGIbhVgqoTGbOnAmhUIg5c+bIKLpevXp48eJFuWWomjJFXQwAZGRmZirvQAC4XkJiYiKMjY25ieDjxo3D1q1btdYWxsTEYMmSJZzrtV69emWucujv748TJ05g7NixCvv379+/R79+/XQyHqnxKFaRSIR169YhKCgIr1690kiZLVq0wMCBA1VOXSTJ8+fPMWXKFGRlZXH7Ro4cqXClZU2Hn7HL/NUAkKltl+l/OdZv7dq1WLBggYidsp45d+7cGtpYXUuSzMxMmR5GVUWTUawlPSQTqan2//zzT6V2+j9GSha8/Y6IlkqlCHB1dUVYWFhlyvZRUZIcbi0RLQUgO3edYZgPderUsY2Ojq4UAT8GUlJSULNmTaB4HiSnSJl+NhHZvXv3zpxhmDId8nrkwzAMataseYuIGElFA1Bu7npFZ/x+7EgsdXKR1E0UQNKK74uSrAxPnz7V+Q1VNQICAlgFv4eSWRkqkm+kC4DjKJ5HCaC4L92qVSs4OjpW63wjYrEYMTExeP/+PU6fPo2EhATJw3sATCIild/x1Va2VCEM4w2gP4CuABwB1C77iipPGoAEAH8DCAFwlIgyK1qoWspmGIaP4m94NLvPyckJPXr0gJOTE5ydndVa/qaqkJqaioSEBNy7d6/0AHY2gAFEpF4mKmXaGvq33a4LIAcAOTo60l9//aWrJrLSKSwspHnz5knmhdpIKuiOVHxAxgOgMWPG6PIeqySvXr0iY2NjVuljSVPKBtAPgFR+Dz3FsFknAKRRRZUN4CwALsGKHvm4uLiwSrcgdZSN4iVjqaioqFJuoLoxffp0VuF1SRVlo3jlykoSu/qyadMmVuFmpIyyAazTK1p92Hx/VJ6yAdQBQElJSWpXtmvXLqnUmXv37q34HajBuXPnpFaInDx5MkVEROik7nr16hGAFCql7NKhDNGrVq1i3YNqMXHiRPaLAwCpMT9d8vLlSxgYGKBLly46r/vNmzdgGMaaYZjhRHSIO0D/WvXGksTIFQIKmqDS+9nPzs7ONGPGDPL09CQA9PjxYzIwMKCWLVvKJNeqUaMG9evXjwBQamoqEREFBgZSvXr1yM/PjwBQfn4+ERHVrVuX6tWrR15eXvThwweaPHkyLVu2jOrXr0/m5uY0ePBgIiLq1asXPXjwgKvHzc2N4uPjK6yHy5cvyzQnksqmN2/eVLgSiRyl9L///Y/b/9lnn3E3tWHDBlq9ejURFSv73LlzRESUn58v9aXUrl2b+x8AiUQiIipebJZd31WSjIwM8vf3JyKirVu3UlBQEHds8uTJUimT2XoKCwvJ0tJSZr8mEAgEsnn9AKzg8/kaq4SIqKioiHx9fcnBwYH7zN6U5A05OztLXSf56+rWrRt9+PBB5hrJz1evXiUAVLNmTWrQoAGXtk6esiXbbMny2F/Qhg0b6Mcff1TzjmWJioqSsm62zf46JCREo+0Wj8fD1atXpYIv8/PzkZqaqtFBZT8/P+4ZkZqayoU0q+IIO3/+PGbPno0tW7ZIPW8qiqurKyuLPxGFAoApNPjT6dGjByUlJVFOTg516NCBWrduzR0LDw8nAJy1Eqlm2UOHDuX2L1++nIiIDAwMKDIykgoKCsjc3Jyz7Pv371PLli3p5cuXVFhYWKZls59dXV01oQIpSprVDCr5En+QbLMqyps3bygwMJAmTZpEoaGhMsdL3+S+ffukPrNLTxMRhYSEcKlFAVBaWhpNmDCBjh8/LnXNV199RYGBgUQkvdz18+fP6ZdffqHs7Gy6evWq1JcsWQ8RUaNGjaSOawqRSMQ1JQAgWr9+vcYrkcfw4cPV7ndr8tdXmri4ONJET0wRKO4w1AAASk9P11pFLN988w2XqFYdVF2rXFkSEhKkFoTXBiXKHq3WKkB6VMPX1xfXrl07os83ogM8PDwAoLle2TrAyckJAJz0ytYBlpaWAGCp00w6qampuqyuQmgj7kVnyq6OoQ2a7jjo1LJ1nUdPXYhIatVKTaFvs3WIXtk6RK9sHaJXtg7RK1uH6JWtQ/TK1iF6ZesQvbJ1iF7ZOqTKZIa/evUq5s+fr/C4QCCAhYUF7OzsuPTPbKpm9rPkMXt7e50mblGGKqPsxo0bIzAwkFvfIDU1FWlpaVw6o7S0NCQlJSEpKUkj9Z04cYLLiKYrqoyynZycMHDgQI2XW1BQwH2B7BeXkZEBOzs7jddVHlVG2dpCIBDAwcEBDg4OlS2K/gGpS/TK1iF6ZesQvbJ1SJV6QGZkZODixYuwtraGra0tbGxsYGlpiRo1alS2aBpBp8qOjY2VSgVqYWEBS0tLWFpawt7eHtHR0Vi5cmWF65G3Po2trS0sLS210r1UFo0r+88//0RQUBDkxXv3799f6XJMTU3x2WefYcCAAXBxcQFQbPlJSUlcX5l9yWH///DhAzIzM5GUlIRXr17JzStYrZWdkpKCYcOG4eLFi1L73dzcMHjwYHh7e6NDhw6wtLQsd3Q9JiYGDx8+xP3793H69GkcOHBAapmUqVOnYsqUKRUVudJQO7Dy/Pnz+PTTT7nPo0aNwtq1axW+PDAMo3YoQ3h4OFatWoX3798DKE69f/ToUQgEArXKKw82lEFTcSPbt2/H9OnT1bNsNv+qvb09Hj16BHt7e40IpYj27dvj5MmTAIAzZ85g8eLFaN++PXr37o1vv/1Wq3VrEpW6fiKRCAzDID8/H3FxcUhISNC6okvTs2dPREREYPr06Th16pRKz4HKRiXLNjExYRMDaksepZk0aRI6d+6MoUOHYu/evTJrz/Tp0wfx8fEqlXny5Ek24lQrqKTsoqIiqZWPyqKwsBC//fYbLl++jJs3bwKAUssP2tjY4JNPPkHLli3Rr18/WFlZKTy3QYMGaNGiBTZv3iyl7AMHDqBWrVpye0SKyM7Ohp+fn1ZD5JRWNrtgjyLX5IcPHzBr1iwcPnxYYRkDBgyAhYUF5/A3MjJCWloa0tPTkZaWhjdv3uDRo0e4evUqrl69KpXE0c3NDQsWLJBZ90soFMosZWhmZqZyxGx5CxJpAqWVbWNjAwAyib8DAgIQHBzMfW7Xrh3mzJmDYcOGSUWuMgyDr7/+WmUBIyMjcfToUZw/f55bttDNzQ2//PILDA0NsWvXLpmffv/+/XHhwgWVFvLk8Xhaz0OrUjOyevVqLFq0CHXq1EFOTg42bNgAAOjbty+OHDkCIyMjjQvo5eUFLy8v7s1yx44dCA4ORrt27bgVl06cOCFz3ZYtW5RenC0gIAAjR47U+uoeKil74cKFeP/+PXfj48aNw549e7Qhl0KmTp0KBwcHrFixgntQFxQUwNjYWKdyqIPKXj9WuQzDYO/eveDxeNi9e7em5ZJBJBJh6dKlEAqFWLFiBdzc3BAREQFDQ0N07NixzGvbt28vtWpeZaGSZb99+xbp6emIiYlB7dq1ERUVhQ4dOmDixIlce9q7d29MmTIFHh4eCA4OxokTJ/D3338DUK43wuLq6oqaNWsiOjoaMTEx3H5/f3+sXr2aex7cvHkTQqEQK1euVLju47Vr11BYWKiVZk4VVFI2a8HsujJNmzblVjXdv38/pk2bhlOnTuHUqVNyr69Vqxbn5bOwsEBOTg6Sk5O5kXPJBZf/+ecfmet9fX3xzTffyEwZsbe3x8mTJxUqe/DgwcjKykKPHj3KDJfQNiop29vbW2bfzJkzsXXrVu5z//79ERgYiObNm+PixYu4ceMGwsPDcf36dcTHxyt80WD7161atUKLFi3QsmVL7lhkZCSCg4MRFhYGf39/ANJOqcTERLRq1Uqh3EFBQdzCc2/fvkW9evVUuW2NoZKye/ToAaDY/blmzRpuucI+ffrgxIkT4PP5Uuf369ePWyizIo4otkcCAPn5+Zg+fTp27NiBHTt2cGkmtmzZovD65cuXS6VP2rVrl1pyVBSVHVGs03/mzJlo164dwsPDtSGXQoyMjLBr1y6IxWJ4e3vjn3/+QdOmTcvsjUycOBHZ2dlwdXWFra2tDqWVRuXeyFdffQWg2E9y8+ZN1KhRA48ePdK4YIrIzc3FyJEj0aZNG4jFYsybNw9RUVE4duyYwmvOnz+Pc+fO4d69ezqTUx4qK/vnn3/GnDlzkJOTg7t37yI3NxctWrQAwzDw8vJCaGioxoWMjo7GwoULIRQK4ePjg2fPnmHhwoWIiIjAyJEjpV565OHm5gY3NzckJyfj0KFDCs/TNmr5s9lFLj08PFBUVISioiLMnj0b27Ztk0rtxufz4evrCzc3NwDFbWd2drbMOKS5uTlMTExgYmICAwMDpKSk4NGjR8jwp7s1AAAgAElEQVTMlM4PLhQK8f3338ukwps9e7bMAs6SZGRkcG12ZU5+VUvZCxcuxObNm7nPfD4fW7duxdatWxEcHIwNGzbgyZMnKCoqwuXLl7mFlP/44w+ZsuQtaF8ab29vjB49Wm5vCECZq448fPgQI0eOLLcOXaCysufMmYNNmzZh2LBh3JtbYGAgfvjhB6nzevTogSlTpuCzzz4Dj8eT6Y0UFRUhPz9foT8iLy8PISEhOH78OG7duoVbt24BKHYYrVixAt27dwdQ7IO+e/culixZIrecjRs34sGDB2jRokWl9UJYVFb2xo0bER4eDh8fH1hZWXErVHt4eODw4cNo1KiRUuXw+fwyHT/GxsYYPHgwBg8ezO27ceMGFi9ejMDAQAQGBsLa2hqpqanw9/eXWotdkl9++QUAsH79egiFQty6dUtnK5uWRq2IKHbEm1V0jx49cOfOHaUVrS4dOnTAqVOnuGdAamoqGIaRu1ByaebOnYt9+/bB29ub+wJ0jcrKfvv2LZo0aQJHR0cQET7//HOcPXsWhoaGYBgGvXv31njf+86dO5gyZQrXG3ny5AlmzpyJ8PBwEBG3OnV5NG3aFBEREXj79i2EQiF8fX0xcuRI3L17l1tpW5uoHMrAMAxsbGw4nwhLbGwsJkyYgAsXZBe6aNy4MZ4/f47AwEDY2dnB2tqaW2s9LS2Nm2UQHx+PR48e4cGDBzLrtwPFTqjFixfD3Nxcar9QKJS76ml5/mwigkgkwqxZs9CtWzcMGTKE219lQhkkvXAstWvXxvnz57nP79+/R1BQEP744w/cv38fAJQOLWMYBu7u7vD39+eG0spi9uzZUr0jZWEYRmuxJ/JQS9l5eXkwMTEp8xwnJycsW7YMy5YtA1Ax34gy8lQH1HpAanO4X1WICMHBwXB3d69sUcpFZWWnpKQgLy9P6+N1ysrCZrzZu3ev2uW8ePFC6z0pQA1lW1tbIyUlBbm5uWAYBmPGjNGGXGVSWFiIgQMHonv37jA1NVXYPLVs2VKpLyEjI4PNvadV1GpGrK2tQUSYPn069u3bx/VQNJ0WujT79+9H69at4e3tzcVylxV+sHPnTmzevLnMpQB69eqFoUOHakNcjvT0dABIr9A0j61bt4KIsGfPHmRkZKBv377F64szDBo0aIBVq1bh5cuXapX97NkzrFu3Dr6+vtxA7fr162FtbY39+/cjIiKCe2VXBMMwOHnyJDp16iQ1mgQUvy+0bdsWdevWxcKFC9WSUVlKom9jNZ6LNSwsDFu2bMGRI0c0Up6xsTH69euHMWPGwNHRUe1yvvvuOy4SFgBq1qyJPXv2yC1T0/1sNhcrg+Isw+X2ZSuCWCwGn8/HvHnzkJycLDXTlp3qYW1tjVq1aqFFixZo0KCB1mRRBk0ru8StO8YAQOEvv/xiMHfuXI0ULA82cqmquDorieMMgJWWlpZfsU4lbfFfzVhZWFgIQ0NDEBFjAGBFenr6VxUXrWyI6D+Zi3XevHkAkAGULCvLMAydPn0aPXv21EgFev6l5BfdmYiusMpezufzvyksLKxs2T4qoqKi0KxZMxARA0gsmMwwDL1586bSooU+RgQCAUQi0VoiWgBIv0FuZCd36qk4oaGhEIlEYBUNSCibiL4gIpmBWz3qURLSMUxyn9S66wzDOAN4l5SUVKFlCv/r1K9fH2/fvk0hIiklSvlGiCgGwNrKjIer7syePRtv375FaUUDULiG723ol5ZVmQ0bNqi2hi/9q/Ao6FenVpqpU6eyiq5Dqi4FTsUKPwOArl+/Xik3UF2QWHfdnMrSZ1kHqVjhfQBQkyZNKuE2qjbswp8APlA5eiRllE3/Kj0aAI0ZM0bHt1T1ePnyJRkaGrKKHkvK6lDZE6lY4bUBZAMgBwcHCg8P1+lNViYikUhqfWIA60gF3RGRdD9bWRiG4QHYBYCbne/g4IBevXrByckJderUqZYuVZbU1FTExcXh/v37uHr1quShTACfUckSsaqilrJlCmGYNgD6A+gGoBaAOhUutHJJBRAP4DGAkwCOE1GFF5DXiLLVqphhTAF0BNC5ZPNCFUt9p0dlCgFEALhcst0gopzKEEQnhs0wjD2AzwGMByAVumZlZQU/Pz907twZHTp0gKurq0yQqp6qTUZGBp49e4YbN24gNDQUYWFhkDPKGgtgD4BNRKRcgqCKoGrnRZkNgBWAzQAKUNJR4vP5NGzYMDp79iwVFhZqrYOmp2pRWFhIZ86coaFDhxKfz5fsOOcD2ADAkrRhgxorCKgH4AorOMMwNH78eHr37p0W1aanOhIdHU1jx44lhmEkDf0SyvDgqbpV1JgFANYDEAMgQ0NDWr16NYlEIq0rR8/HQUFBAa1cuVLSzyQGsAaAIenasAHYAfiL/bX179+fUlJSdKMJPR8tycnJ1KdPH8lW/A4AO9K2YQOwBfCUrXjRokW6u2s9/ylWrVolaeDPATiQpg27pMtxnq3o22+/1e1d6vnPsnTpUkkDP6NsF6Vcdx/DMP0AnADA9OvXD8ePH+dmEOiS7OxshIaG4sWLFyAi2NnZwcXFBW3atNHpVOjqwIoVK3DixAn89ttvaNasWWWLU2GKiorQv39/Nk8kAehLRPKTRpag0EKZYi4D+MPQ0JC5efMm/vjjD50bNVtnrVq1cP/+fbRt2xZ9+vRBrVq1uIygP/74o05lqmy2bdsGhmGkMmhL8vbtW0RGRnL5Iqs7fD4fISEhuH79OgwMDBgAIQzDyGb9kEReMw7AAsUOdXJ3d6eCggKdP4JYnJycCADFxMQodf7SpUtp6tSplJ2dLff4vXv3KCAggPbv38/tW7RoEc2fP5/EYjHt3buXPv30U/Ly8qIRI0bQgwcPuPOOHj1Kffr0IU9PT+rbty+FhYXJlH/16lUKCAigq1evUlRUFE2ePJnatGlD7du3p6VLl1JmZqbMNR8+fKDdu3fTmDFjqGPHjuTp6Um9evWin3/+mfLy8qTOXb9+PXXs2JEAkK+vLwUEBHBbWloaERFNnjyZAFBERARFRkbSmDFjSCgUUseOHenHH3+k/Px8rrycnByaNm0aff311wp1euLECQoICKgS8XAikYg++eQTtmsSBwV+cHlGXQfFznMaN25cZcnPsWzZMgJAxsbGNHXqVPrjjz8oMTFR4fnv3r0jAwMD8vb2ljmWkpJCJiYm1KhRIxKLxdx+Z2dn4vF41KRJE3r27Bm3/8cffyQA5ObmRnXq1JEy8t27dxMA6t69u1Qd27Zt4/z4ixcv5uopLCzkIi6nTZsmdU1oaCjdv39fal9WVhaNHj2aANCmTZukjm3dupUAUFBQkFwdsIZtZGREhw8f5va/f/+eGjduTAAoMjKS23/y5EkCQDNnzpQp69q1awSAhg4dKreuymLUqFGscecBcKKyDBvFXo8sADRp0qRKFFuWFy9e0Lp166hnz55kZ2fHvVDUrFmTLl68KHXu2bNn5X5R7u7uJBAIKCEhQWq/s7Mz8fl8qZaMpWnTpgSA4uPjZY6xLWdWVha3jzXszz//XO59jBgxggDQ5cuXpfbn5ubSmTNnaMuWLfTNN9/QokWLaNGiRVSjRg1ycXGROldZw/7zzz9ljrG6Kd1Cr1ixggDQrl27uH3JyclkYmJCjRs3lmoIqgrjxo1j7SALpdyCkkbNBxADgIYMGVKpAitLZmYm2draco9dSdjWlv2ixo4dSwAoNDRUphxnZ2eyt7eXW4eHhwcxDCP3WLdu3QgAffjwgdvHGvYPP/wg95p58+YRADp06BAREWVnZ5O9vT2ZmZnRoUOHKCcnR+p8W1tbGdmUNezSOiH6N7J53rx5MseGDx9OALgnk5ubGxkZGZX5hKxsBg0axBp3NAAeyTHs31AS/FuVRg7L6lunp6eTlZUVAZB5lBP9a8yTJk0iALRmzRq55WjDsG1sbKRaciKiuLg4MjIyIhsbG67vfOHCBYWGxvpyS8t25MgRAkA//fSTXLnUNWyiYmO2srKiwYMHK2wIqhIikYgcHBxY495NkoYNoDv7aL99+3blSlqKLl26SPoxSSAQSH328vKi6Ohohde3atWKANDIkSMVnqMNw16yZAm5uLiQQCAgFxcXMjAwIAA0aNAgmZfx5cuXc3ETjo6OZGxsTDwej9atW0d169aVK9uYMWOk9ACA3r9/T0QVM+y0tDSqUaNGmQ1BVePGjRuSevAnCcO+hZKh8Y8JtoVs3ry5zvqIrGFv375dJ/VpGvYJMnbs2MoWRSV69+7NGvZ1IgKPYRhvAG0BqLViYFXE1NQUDMPA0dERPj4+uH//frWe0qNtnjx5wmUE7NatGxYsWFChhJ+VweLFi9l/OzAM04YBsBLAV46OjtzC2nr0VEccHBzYRY5X8AB0BaDPvKWn2tOrVy/23248FE+H5tZz1KOnuiJhw7V5AByA4gVH9eipzkisBOHIQ/HATKVE7OnRo0kkbJj/0Vnzmzdv0LlzZ25JPv2m2c3IyAgjRoxAQUFBZX/VZfLR5fEYN24cwsLCYG9vj2HDhpV/gR6lISJs2bIFhw4dQu3atbFmzZrKFkkhH51hs9ja2mLcuHGVLcZHBWvY1YGPriuiRw+gN2w9Hyl6w9bzUaI3bD0fJXrD1vNRojdsPR8lesPW81GiN2w9HyV6w9bzUfLRjjxWhOjoaISEhMDMzAxGRkYQCAQwMzODgYEBzM3NYWBgABMTExgbG0MgEKBGjRrg8/moUaNGZYuupwS9YcshKioKu3btqmwxykQgEMDY2BjGxsYwNDSEubk5+Hw+92M0MjKCqamp1I/R1NQURkZG6NWrFywsLCr7FrSK3rDl0L17d3Tv3l0jZeXn53NbZmYm939BQQHy8vJQUFCA/Px8ZGRkcP+XPqf0dZLnp6amQiQSqSRT165dNXJvVRm9YWsZtvUEADs7u0qW5r+D/uVRz0eJ3rD1fJToDVvPR4nesPV8lOgNW89Hid4rUgYvX75Ued6kQCCAhYUF5w0xNzeX+p8d1GHPKf2/vOPW1tYwMNB/VapQLbUVFxeHv//+GzExMYiOjkZ0dDRiYmLw7t07PHv2DEBxPjqhUKhW+QYGBrC3t4eNjQ2aNWsGExMTGBoacoYnFos5f3JWVhby8/ORl5eHrKwsFBQUICkpSZO3WyEcHR3x559/VrYYOqfKGXZSUhIuXLiA8+fP48KFC4iNjVXpej6fDwAwNjZGixYtuNE4Q0NDmJiYwMjICAYGBsjOzoZIJEJubi43+MH+n5ycjPfv36uUy9DU1BReXl7w9vZGu3btULduXZXkVoXs7GxO3uzsbBQUFCAnJwc5OTkoKChAVlYW8vLykJ+fD1NTU63JUZWpVMO+ceMGtm/fjt9//x15eXkyxxmGgbu7O4RCITw9PeHl5YVWrVrBzMxMYZl+fn4ICwtDgwYNsHXrVq3IXVRUhNevX+Pp06eIiori/l67dg3Xrl2TuQdPT08MHDgQXbp00UiXwszMrEwd6NGxYT9//hxz5szB2bNnpfYLBAIMHToUo0ePRvfu3bmRuqoKn89Ho0aN0KhRI/Tt21fuOU+ePMG5c+dw6tQpREZGIjIykkvTXKdOHXz55Zdo3769LsX+T6F1wxaJRJg4cSL27dvH7bOwsMDixYsxY8aMj/ZR6ebmBjc3N8ydOxdAcU6OsLAwbNq0CW/fvsWcOXMAAA0aNMDmzZvh4OBQmeJ+dGjVsL/++musXLkSQHFetbVr1+KLL77QZpVVFoZh4OfnBz8/PwDA/fv3sXDhQrx69Qq9e/dG8+bN8csvv3DvCGVRVFSEN2/eIDIyUm4XriJYWFigdevWcHJyqtbJ8rVm2OPHj+ey4s+cOVPnGYRyc3Nx584dZGZmoqioCFlZWSgsLERubi4XNccwDBfuaWpqKhUKampqCltbW9SqVUsrS1q3atUK58+fx7Vr1zB37lz8/fff6Nu3L/7880+Fxp2SkoIhQ4YgPT0dLVq0QLt27TTuBoyPj8fnn3+ON2/eoFGjRti3b1+1dDVqReIPHz5wRu3l5VUhoy4qKsKjR4+4furdu3fx4MGDcluq169fY8aMGWrXqyy1atVCs2bN0KxZMzRt2hTu7u6wtLRU+nofHx9MnjwZO3fuRGJiIs6cOYM+ffrIPXfPnj1IT0/HhAkTMHPmTE3dggzTpk3DggULcOXKFZw8eRIDBw7UWl3aQiuGbWdnBxsbG6SkpODBgweIjY0tN7F8ZmYm/u///g+HDh3ClStXUFRUpPBcCwsLeHt7w9PTE5988gnq1KkDZ2dn1K1bFz169EBYWBjc3Nzw66+/auR+iAjJyclITExEQkIC3r17h6ioKERFReHdu3eIj4/H5cuX5V5rb2+Prl27onfv3nB1dZV7zvXr17n/69evr1CO6dOnIzw8HLt378Yff/yBli1bKtV1UYX8/HxuHfb27dtjwIABGi1fV2jtGXP9+nW0atUKBQUFcHZ2xtq1azFv3jzu+N9//41ly5bh+PHjEIvFUtdaWVmhX79+6N+/P/z9/WFlZaUtMZWCYRjY2trC1tYWbm5uZZ5LRHj27BnCw8Nx6dIlREVF4cCBAzhw4AB3Tq1atTB+/Hg0atQIc+bMQU5ODgBg4cKFaN68ucKyTUxM8PvvvwMAduzYgeDgYPj4+GDEiBEauEtg/fr1eP78OVauXKmxiRaVhdYMu1mzZsjNzcXUqVOxc+dOzJ8/H/Pnz4exsbFUN8LU1BRTp07F3LlzUadOHW2JozMYhoGrqytcXV0xYcIEbn9RURGuXLmC4OBgvHjxAqtWreKO2djY4ODBg6hZs6bS9bD9fjs7O7Rp00Yjspubm0uVXZ3R6lsBj8dDcHAwevfujcGDB6OoqEjKqM3MzBAQEIDp06d/FEYtj4yMDISEhODgwYOIi4vj9vN4PDRp0gT//PMPUlJS8Omnn6J169bYuHGjWoYVExODhQsXIisrS+5xLy8vLF26VO37qG5o/XV3wIABOHHiBACgU6dOOHPmDJ4+fYrly5fjxIkTWL9+PdavX8+db2hoCH9/f3z66afo3r073N3dla4rKyuLe6ynpaVhx44dyM3N5Yaa8/LyuHmGOTk5KCoqgqGhIecJEQgE3ATYGjVqwNTUFI6OjnBwcIC9vX2ZHpLk5GTcvn0bN2/exI0bN5CRkSFzTpMmTTB58mR06tRJammUK1eu4Msvv8Rff/2Fjh074sCBA2jUqJHS9w0Azs7O2Lt3r8KVBj7W8QJFaNWw9+zZwxm1pMvPw8MDx44d487Ly8vD6dOnceTIEYSEhODcuXM4d+5chep+//49goODK1SGuvB4PHh6eqJbt27w9/cvt4vRqVMnnDp1Cn369IFYLMaXX36J48ePq1Tn8+fPMWXKFKknYteuXbFixQq17qG6o1XDTklJ4f4vqwUyNjZGt27d8OHDB7x9+xa3bt1il8KWgR00UHRcF9jb28PJyQkmJibIz89HYmIiYmNjOZnEYjHu3r2Lu3fvYvXq1TAwMEDbtm3Rv39/+Pr6yvUL29rawtjYGDk5OUhPT1dZpsaNG+PKlSsVvbWPBq0a9pw5c7Bu3TrExsZi7ty5sLa25pbPSEhIwOLFi7Fnzx6Z9AH29vYYNGgQhgwZAh8fH5UGCNggqGbNmuHnn3/mwktzcnJQWFiIzMxMAMWPZj6fDwsLC5kBGk2Qm5uLW7du4eLFi7h27Rpu3LiBGzducMfNzMwwatQojB07FkSEUaNGcd0odrhdFR4+fIjJkyfLeJhYXFxccOTIEfVuphqiVcM2MDDAu3fv0KtXL5w9exbjx4/HxIkTpZRvaGiIMWPG4JtvvkGTJk00VjfDMJWaFMbExASdO3dG586dpfb/888/2L17Ny5duoSgoCAEBQVxxwwNDREcHFymy08RLVq0wJ07dyos98eC1qeGMQyDo0eP4pNPPgEAKaM2NTXF/PnzsXbtWo0adVWFiGS6LZKIRCKpYDFV+OuvvyAUCqW2iRMnVlTkaovWvSLPnz+Hq6sriAh8Ph+hoaFwcXHB3LlzcezYMaxatUrKp9u2bVsMGzYMgwYN0mqwvrYRiUT466+/cPHiRYSGhsq44ezs7DB79mz07NkTDMPg8OHD+PHHH3Hx4kV07doVp0+fVsnt17p1a0RERGj6NqotWjfsqVOncq3Tw4cPuZE7dgQNKI7r2LlzJ3bv3o3bt2/j9u3bUqOUQHEMdNOmTeHl5cVt5U060CYxMTF4+vQpN8kgKipKrosPKPaStG/fHoMGDYKPj4/cVZCHDh0KS0tLfP3110hLS8PmzZsxf/58peW5efMmZs+erfC4nZ0dzpw5o3R51R2tG7Zk6KMiT4aLiwu+//57fP/991LnPnr0COfPn8eVK1cQGRmJx48f4/Hjx0rFgFRkzqM6GBoaolmzZvjkk0/Qtm1btG7dWmXfsaR+VA0Zbdeunb7FlkDrhh0UFIQmTZpALBajZcuWuHDhgswLlSREhJs3b+LIkSM4deoUnj9/Xm4dBgYGqFmzJiwsLPD+/XtkZ2fDyMgI9vb2EIlEEIvFyM3NBRHJHZkTCAScR4TH48HExITzlLAeGXYuYVpamtyWWSQScS344cOHIRAI4OnpiU6dOsHf3x82NjZl3sPBgwexdu1aAIC1tTVmzZpV7n0DwLFjx3Ds2DGYmJigXbt2GDRoENq0aVOtY6k1gdYNu2HDhsjKykLHjh1x9+5d+Pv7QyAQYM2aNZg1axZu3LiBlStX4ty5c3JdVY0aNUL37t3RpUsXCIXCcvvdrLuvYcOGGovuU4aCggK8ePEC9+/fx+3bt3H37l3cunULt27dkokLGTx4MIYPHw5jY2Ns2rQJhw4d4o736NFDpUGVgQMHIjAwEKmpqTh79iy+/fZbJCYmQiAQYMGCBdUy5FQT6CSC3MTEBJGRkcjMzMSkSZNw5MgRzJkzR8pfa25ujnHjxiEgIIDzoFQnBAIBNx1s5MiRUscKCgpw6dIlHDt2DPfu3ZNx8zEMg2HDhuGLL75QO6jf2toaI0aM4CL9Ll26hKVLl2LlypXw8PDAt99+CycnJ/VvsJqhs6kRDx8+RJcuXbicGzweD40bN8br169RUFCAzMxMbNmyBVu2bIGtrS0GDBiAwYMHw8/Pr8pP7pVHdnY2bt68iYsXL+L69esyEyPYBO0pKSkgIhw6dAgpKSlYvny5RmKsu3Tpgi5duiAnJwc7duzAwIEDUVhYCCsrK/Tt2xfdunVD06ZNuRdZIkJhYWGF660qaN2wxWIx/P39cfXqVQDFQ7+hoaFwdnaWOi87OxuHDh3Cnj17EB4ejuDgYLmxHvK8I40bN4a9vb22b4W7n+TkZC79AruVlf/E0NAQPj4+6N+/P3x8fGQM9/Dhw/jpp59w/vx5nD9/HmvWrEGnTp00Iq+pqSnmzp3LTSpOSUnhBoeePXuG1NRUEBEsLCy4H9+HDx80UndlopPoPtaod+zYgYCAALnnmZmZYdKkSZg0aZLU/tzcXISFhSE8PJybHqaMd0TXXpHatWtzU8Q8PDzQvHlzuW49eQwdOhSDBg3CiBEj8OrVKyxYsABBQUHw9PTUuJw2NjYYMmQIhgwZInMsICAAd+/e1XidlYHWDZvNIVKrVi2FRl0WJiYm+PTTT/Hpp5+We25ubi58fX0REREBJycn9OnTh1sio6ioiMuaxIavikQibg0XMzMzmdgRMzMz1KpVC7Vq1eJCVw0NDVW+B2Xg8/mYNGkSl3vkxo0bWjHs/wpaN+zBgwfjwIEDiI+Px8qVKxEYGKi1ukxMTDjfsZWVlVo/pMoiNzcXmzZt4j5369atEqWp/mg9VmT//v0YPnw4gOI8I7a2toiMjNR2tdUGsViMtWvXwsfHBwkJCeDz+di9ezeaNm1a5nVsFKIm84qwZX0MkxJ0kh/74MGDiI2NhaurK5KTkyEUCsEwDLp06YKnT5/qQoQqhVgsxu+//w5/f3+0adMGBw8eBFAcfnD79m2l3J1du3YFwzC4ePEi0tLSKizTo0eP8OTJExgbG8Pf37/C5VU2PABFABTG8WoKJycnREVFQSwWY9u2bbC2tkZoaCjc3NzAMAx4PB66d++Oo0ePKpzeVF2Ji4vD9u3b0bNnTwiFQrRp0warVq1CRkYGWrdujWPHjiEiIgJTpkxRukw7OzusWbMGBQUFGDBgABISEtSW78GDB5g0aRJ4PB527twJExMTtcuqTCRsuMgAQAIAp/j4eJ1UzjAMpk2bhmnTpgEoDiZat24ddu/ejQsXLuDChQtS5xsZGaFjx45c6+bp6Vnu8LSuEYvFePv2LZ4+fYoHDx7g9u3biImJkXuuu7s7Ro0aha5duyrtNVGEn58fLly4gAkTJqB3795o0qQJVq1apXRU5MOHD/G///0PiYmJaNmyJbZu3VotxwxYJNI+xxkAiAXgpOiL0DbOzs5Yt24d1q1bx+1LTEzE8ePHcerUKVy+fBmXLl3CpUuXyi2rVq1ayM7OBlCcqmvfvn0wNTXlErdLLg1tYGAAY2NjZGVlQSQSyUz0FYlESE5ORlxcHBISEpCYmIj4+Hil+7T16tVDu3bt0KlTJ3h6elbYiBVhbW2NEydOIDs7Gxs3bsTgwYMhFovB5/PRrFkzuLq6ombNmhCLxUhMTMTjx4/x6tUrEBEEAgE3+aM6pjErjYQNxzIAVgL4ytHRUaVE55VJamoq7t69i8jISDx69Ahv377Fu3fvEBsbq/Iqtapgbm4Oe3t7ODo6wtnZGU2bNkWzZs3g4uKiNcNVF7FYjLS0NMTExODFixfg8Xhwc3ODg4ODSinYJCEitG7dGgAwf/58rFmzRpMiVxgHBwckJiYCwAoDACcBfBUXF4c7d+5oLPmKNrG2tuaGjEvDBkFpMsVZdYTH48HGxgY2NjZo0aJFZYujdW7dusUaNQD8aUBEtxiGuQXA+/vvv2sPklUAAALdSURBVMcff/xRieJpjqSkJC4xph7NUJmZAcpj+fLl7L/XiegOK2xXAASAbt26RdWZ169fU5cuXYhhGGLvSb9pbhMIBDRixAjKz8+v7K+a4/r165IydiYiMFTyK2QY5lcAY+zt7REbG/tRvEzo+fgpLCyEs7Mz6+7cRUSTAOkBmvEAYhMTEzWWvVOPHm0zbNgw1qjfAeAGAjjDJiIxgJYAsn7//XeZKDs9eqoa48aNY1PlZQPwKrFhAPi3K8LtYBhnAC8BCMaMGfOf9izoqbqMHDmSDUXIA9CAiOIkj8sYNgAwDGMB4CkAJ3d3d9y7d09r4Zp69KhCQUEBWrVqxcYYxQFoSkQys6vljiqUnOgMIPTx48cwMzNDeHi4VgXWo6c8rl27BjMzM9aozxORkzyjBsqI7ivxpHQB0FckElGHDh3Qt2/fMteG0aNHGxQVFaFnz57w9fVFYWGhGEAvIipz5km548BEFALACMC5kJAQGBgYYNmyZZqRWI+ecliyZAkMDAzYmVinARgRUfkprYhI6Q1ATQBPUOIMX7RokQ7c73r+i6xatUpy0OUZAHtSxVZVOZn+NXBbALfZivv06UPJycm6u2s9HyVJSUnUq1cvSYO+BcCW1LFRdS6ifw3cEMAaAGIAZGhoSCtXrqSCggLdaEJPtaegoICWL19OBgYGrDGLAawGYEAVsc2KXCxVEFAHwCX218YwDI0ZM4bevHmjdeXoqV68fv2aRo4cWTqe5wIAZ9KUPWqqIKlCAQsA61HsPCcAxOfzaciQIXTq1CkSiURaVJueqoRIJKKQkBAaPHgw8Xg8SUPOK3nam5MWbFDuAI2mYRjGDsAcFMejSKWAsrCwgK+vL/z9/dGhQwe4urqqHQivp3JIT09HVFQUbty4gdDQUISFhXFr/UjwDsAeAJuIKEnbMunEsOVWzDAmANoD6FyytYEOcwnq0QqFKHYqXC7ZwolIc/khVOD/AQ3V0NeWjaGiAAAAAElFTkSuQmCC;" vertex="1" parent="1">
          <mxGeometry x="270" y="473" width="92.39" height="100" as="geometry" />
        </mxCell>
      </root>
    </mxGraphModel>
  </diagram>
</mxfile>
